<svg width="153" height="153" viewBox="0 0 153 153" fill="none" xmlns="http://www.w3.org/2000/svg">
<path d="M126.234 63.5282C126.234 98.1566 103.922 139.204 76.3983 139.204C48.8742 139.204 26.594 98.1566 26.594 63.5282C26.594 28.8998 48.9028 13.7829 76.4301 13.7829C103.957 13.7829 126.234 28.8966 126.234 63.5282Z" fill="white"/>
<path d="M69.9166 59.2033C69.9166 54.4252 64.095 50.5533 56.918 50.5533C49.7409 50.5533 43.9225 54.4252 43.9225 59.2033C43.9225 63.9813 49.7409 67.8501 56.918 67.8501C64.095 67.8501 69.9166 63.9782 69.9166 59.2033Z" fill="#DBF2F1"/>
<path d="M108.906 59.2033C108.906 54.4252 103.088 50.5533 95.9076 50.5533C88.7274 50.5533 82.9121 54.4252 82.9121 59.2033C82.9121 63.9813 88.7306 67.8501 95.9076 67.8501C103.085 67.8501 108.906 63.9782 108.906 59.2033Z" fill="#DBF2F1"/>
<path d="M76.4142 87.3109C70.2371 87.3109 65.5836 84.5226 65.5836 80.825C65.5725 80.534 65.6202 80.2438 65.7241 79.9718C65.8279 79.6997 65.9857 79.4513 66.188 79.2415C66.3903 79.0317 66.6329 78.8649 66.9013 78.7509C67.1697 78.6369 67.4584 78.5781 67.7501 78.5781C68.0417 78.5781 68.3304 78.6369 68.5989 78.7509C68.8673 78.8649 69.1099 79.0317 69.3121 79.2415C69.5144 79.4513 69.6722 79.6997 69.776 79.9718C69.8799 80.2438 69.9277 80.534 69.9165 80.825C69.9165 81.3636 72.221 82.9859 76.4142 82.9859C80.6074 82.9859 82.912 81.3636 82.912 80.825C82.9008 80.534 82.9486 80.2438 83.0524 79.9718C83.1563 79.6997 83.3141 79.4513 83.5163 79.2415C83.7186 79.0317 83.9612 78.8649 84.2296 78.7509C84.498 78.6369 84.7867 78.5781 85.0784 78.5781C85.3701 78.5781 85.6588 78.6369 85.9272 78.7509C86.1956 78.8649 86.4382 79.0317 86.6405 79.2415C86.8428 79.4513 87.0005 79.6997 87.1044 79.9718C87.2082 80.2438 87.256 80.534 87.2448 80.825C87.2448 84.5226 82.5882 87.3109 76.4142 87.3109Z" fill="#DBF2F1"/>
<path d="M91.5777 102.447C91.5777 97.6686 84.788 93.7968 76.4142 93.7968C68.0405 93.7968 61.2634 97.6686 61.2634 102.447C61.2634 107.225 68.0532 111.094 76.4269 111.094C84.8007 111.094 91.5777 107.222 91.5777 102.447Z" fill="#DBF2F1"/>
<path d="M112.052 110.897L103.065 107.26C102.8 107.14 102.512 107.076 102.221 107.07C101.93 107.064 101.64 107.117 101.369 107.225C101.099 107.334 100.853 107.495 100.647 107.701C100.44 107.906 100.277 108.151 100.168 108.42C100.058 108.69 100.004 108.979 100.009 109.27C100.014 109.561 100.078 109.848 100.196 110.113C100.315 110.379 100.486 110.618 100.699 110.817C100.912 111.015 101.163 111.169 101.437 111.268L110.433 114.905C110.677 115.001 110.936 115.051 111.198 115.054C111.856 114.015 112.496 112.959 113.118 111.886C112.891 111.441 112.513 111.09 112.052 110.897Z" fill="#DBF2F1"/>
<path d="M111.071 44.0673C111.402 44.0651 111.728 43.987 112.023 43.8392L120.689 39.5174C120.949 39.3879 121.181 39.2067 121.368 38.9851C120.797 37.7525 120.175 36.577 119.511 35.4395C119.248 35.4649 118.991 35.5379 118.753 35.655L110.087 39.98C109.657 40.2015 109.313 40.5604 109.111 40.9995C108.909 41.4386 108.86 41.9326 108.971 42.4028C109.083 42.873 109.349 43.2924 109.727 43.5941C110.106 43.8957 110.574 44.0623 111.058 44.0673H111.071Z" fill="#DBF2F1"/>
<path d="M49.452 106.997L40.7894 111.322C40.4148 111.52 40.1085 111.825 39.9102 112.199C40.545 113.292 41.1989 114.363 41.8592 115.406C42.1599 115.395 42.4551 115.322 42.7257 115.19L51.3915 110.865C51.9055 110.609 52.2964 110.16 52.4782 109.616C52.6601 109.072 52.618 108.478 52.3612 107.965C52.1045 107.452 51.654 107.061 51.1091 106.88C50.5641 106.698 49.9692 106.74 49.4552 106.997H49.452Z" fill="#DBF2F1"/>
<path d="M42.7225 39.9705L34.0599 35.6455C33.8228 35.527 33.5654 35.454 33.3013 35.4301C32.6664 36.5675 32.0316 37.7431 31.4443 38.9756C31.6314 39.1973 31.8628 39.3775 32.1236 39.5047L40.7894 43.8297C41.0439 43.9564 41.3209 44.0319 41.6046 44.0517C41.8883 44.0715 42.1731 44.0354 42.4428 43.9454C42.7125 43.8554 42.9618 43.7132 43.1765 43.527C43.3911 43.3408 43.5669 43.1142 43.6939 42.8602C43.8208 42.6061 43.8964 42.3297 43.9162 42.0465C43.9361 41.7633 43.8999 41.479 43.8097 41.2098C43.7195 40.9406 43.5771 40.6917 43.3906 40.4775C43.204 40.2632 42.977 40.0877 42.7225 39.961V39.9705Z" fill="#DBF2F1"/>
<path d="M76.4143 141.365C105.224 141.365 128.399 98.784 128.399 63.5282C128.399 31.0512 108.966 11.6347 76.4143 11.6347C43.8621 11.6347 24.4419 31.0512 24.4419 63.5282C24.4419 98.784 47.6141 141.365 76.4143 141.365ZM33.4314 40.1765L40.7958 43.8519C41.3087 44.0964 41.8973 44.13 42.4349 43.9455C42.9724 43.761 43.4158 43.3732 43.6697 42.8656C43.9236 42.3579 43.9676 41.771 43.7922 41.2313C43.6168 40.6916 43.2361 40.2423 42.7321 39.98L35.4535 36.3489C43.1701 23.2789 57.3115 15.9597 76.4016 15.9597C95.4917 15.9597 109.646 23.2789 117.372 36.3362L110.09 39.9705C109.836 40.0974 109.609 40.2731 109.422 40.4876C109.236 40.702 109.093 40.951 109.003 41.2204C108.913 41.4898 108.877 41.7742 108.897 42.0574C108.918 42.3407 108.993 42.6172 109.12 42.8713C109.248 43.1253 109.424 43.3518 109.638 43.5379C109.853 43.7241 110.103 43.8661 110.373 43.956C110.642 44.0459 110.927 44.0818 111.211 44.0618C111.495 44.0418 111.772 43.9661 112.026 43.8392L119.394 40.1638C122.619 47.5249 124.21 55.4955 124.057 63.5282C124.108 80.1866 119.701 96.5563 111.29 110.945L103.377 106.997C102.864 106.752 102.275 106.719 101.737 106.903C101.2 107.088 100.756 107.475 100.503 107.983C100.249 108.491 100.205 109.078 100.38 109.617C100.555 110.157 100.936 110.606 101.44 110.869L108.96 114.62C99.6595 128.447 87.4608 137.04 76.4143 137.04C65.3678 137.04 53.1691 128.447 43.8716 114.62L51.3883 110.878C51.9023 110.622 52.2932 110.172 52.475 109.628C52.6569 109.084 52.6148 108.49 52.358 107.977C52.1013 107.464 51.6509 107.074 51.1059 106.893C50.5609 106.711 49.966 106.753 49.452 107.009L41.5385 110.945C33.1235 96.5575 28.7116 80.1878 28.7589 63.5282C28.6093 55.4989 30.2034 47.5324 33.4314 40.1765Z" fill="#807E7E"/>
<path d="M56.9179 70.0236C65.4218 70.0236 72.0814 65.2709 72.0814 59.2127C72.0814 53.1546 65.4154 48.4019 56.9179 48.4019C48.4204 48.4019 41.7544 53.1546 41.7544 59.2127C41.7544 65.2709 48.4172 70.0236 56.9179 70.0236ZM56.9179 52.7268C62.7903 52.7268 67.7485 55.6957 67.7485 59.2127C67.7485 62.7298 62.7903 65.6986 56.9179 65.6986C51.0455 65.6986 46.0873 62.7266 46.0873 59.2127C46.0873 55.6989 51.0487 52.7173 56.9179 52.7173V52.7268Z" fill="#807E7E"/>
<path d="M95.9075 70.0236C104.411 70.0236 111.071 65.2709 111.071 59.2127C111.071 53.1546 104.405 48.4019 95.9075 48.4019C87.41 48.4019 80.7472 53.1546 80.7472 59.2127C80.7472 65.2709 87.4068 70.0236 95.9075 70.0236ZM95.9075 52.7268C101.78 52.7268 106.738 55.6957 106.738 59.2127C106.738 62.7298 101.78 65.6986 95.9075 65.6986C90.0351 65.6986 85.0706 62.7171 85.0706 59.2032C85.0706 55.6894 90.0383 52.7173 95.9075 52.7173V52.7268Z" fill="#807E7E"/>
<path d="M69.9165 80.825C69.9277 80.534 69.8799 80.2438 69.776 79.9718C69.6722 79.6997 69.5144 79.4513 69.3121 79.2415C69.1099 79.0317 68.8673 78.8649 68.5989 78.7509C68.3304 78.6369 68.0417 78.5781 67.7501 78.5781C67.4584 78.5781 67.1697 78.6369 66.9013 78.7509C66.6329 78.8649 66.3903 79.0317 66.188 79.2415C65.9857 79.4513 65.8279 79.6997 65.7241 79.9718C65.6202 80.2438 65.5725 80.534 65.5836 80.825C65.5836 84.5226 70.2371 87.3109 76.4142 87.3109C82.5914 87.3109 87.2448 84.5226 87.2448 80.825C87.256 80.534 87.2082 80.2438 87.1044 79.9718C87.0005 79.6997 86.8428 79.4513 86.6405 79.2415C86.4382 79.0317 86.1956 78.8649 85.9272 78.7509C85.6588 78.6369 85.3701 78.5781 85.0784 78.5781C84.7867 78.5781 84.498 78.6369 84.2296 78.7509C83.9612 78.8649 83.7186 79.0317 83.5163 79.2415C83.3141 79.4513 83.1563 79.6997 83.0524 79.9718C82.9486 80.2438 82.9008 80.534 82.912 80.825C82.912 81.3636 80.6074 82.9859 76.4142 82.9859C72.221 82.9859 69.9165 81.3636 69.9165 80.825Z" fill="#807E7E"/>
<path d="M76.4143 91.6359C66.6978 91.6359 59.0859 96.3886 59.0859 102.447C59.0859 108.505 66.7042 113.258 76.4143 113.258C86.1244 113.258 93.7427 108.505 93.7427 102.447C93.7427 96.3886 86.1308 91.6359 76.4143 91.6359ZM76.4143 108.933C68.7548 108.933 63.4156 105.514 63.4156 102.447C63.4156 99.3797 68.7548 95.9609 76.4143 95.9609C84.0738 95.9609 89.4098 99.3765 89.4098 102.447C89.4098 105.517 84.0738 108.933 76.4143 108.933Z" fill="#807E7E"/>
</svg>
