<svg width="160" height="160" viewBox="0 0 160 160" fill="none" xmlns="http://www.w3.org/2000/svg">
<path d="M23.5685 83.7806H136.432V97.2598H23.5685V83.7806Z" fill="#9FBFCC"/>
<path d="M26.0448 97.2598V109.132C26.0505 113.143 26.8476 117.114 28.3908 120.818C29.9339 124.522 32.1929 127.887 35.0386 130.719C37.8843 133.552 41.2611 135.797 44.9761 137.327C48.6911 138.857 52.6717 139.641 56.6904 139.636H103.31C111.426 139.646 119.213 136.438 124.96 130.718C130.707 124.998 133.943 117.233 133.955 109.132V97.2598H26.0448Z" fill="#DBF2F1"/>
<path d="M125.55 83.7807H34.4498C33.3095 82.8633 32.3896 81.7026 31.7577 80.3838C31.1258 79.065 30.798 77.6216 30.7983 76.1597V75.8781C30.8019 73.2748 31.841 70.7795 33.6874 68.9409C35.5337 67.1023 38.036 66.0709 40.644 66.0736H48.0631C45.458 66.0736 42.9596 65.0406 41.1176 63.2019C39.2755 61.3632 38.2407 58.8694 38.2407 56.2691C38.2407 53.6687 39.2755 51.1749 41.1176 49.3362C42.9596 47.4975 45.458 46.4646 48.0631 46.4646H61.1286C60.8303 43.742 61.1481 40.9873 62.0587 38.4038C62.9694 35.8202 64.4496 33.4737 66.39 31.5374C69.0508 28.9098 72.4379 27.1362 76.1162 26.4447C75.0274 32.2001 76.5942 38.4129 81.0656 42.8695C82.5543 44.3532 84.2867 45.5714 86.1876 46.4712H111.934C114.539 46.4712 117.037 47.5042 118.879 49.3429C120.721 51.1816 121.756 53.6754 121.756 56.2757C121.756 58.876 120.721 61.3698 118.879 63.2085C117.037 65.0472 114.539 66.0802 111.934 66.0802H119.353C120.644 66.0771 121.924 66.3282 123.119 66.819C124.313 67.3098 125.399 68.0308 126.314 68.9407C127.23 69.8506 127.956 70.9316 128.453 72.122C128.949 73.3123 129.206 74.5887 129.208 75.8781V76.1465C129.21 77.6112 128.883 79.0577 128.25 80.379C127.616 81.7004 126.694 82.8629 125.55 83.7807Z" fill="#FBDDDD"/>
<path d="M100.787 68.3168C100.635 68.3161 100.484 68.3005 100.335 68.2704C100.187 68.2409 100.043 68.1965 99.9037 68.1379C99.7653 68.0804 99.633 68.0094 99.5087 67.9258C99.3816 67.8421 99.2627 67.7467 99.1535 67.6409C99.0494 67.5384 98.9539 67.4276 98.868 67.3095C98.7868 67.1828 98.7158 67.0498 98.6556 66.9119C98.5994 66.7725 98.5561 66.6284 98.5261 66.4812C98.4686 66.1835 98.4686 65.8776 98.5261 65.5799C98.557 65.4329 98.6003 65.2888 98.6556 65.1491C98.7158 65.0123 98.7868 64.8804 98.868 64.7548C98.9539 64.6367 99.0494 64.5259 99.1535 64.4235C99.4771 64.102 99.8879 63.882 100.335 63.7906C100.633 63.731 100.94 63.731 101.238 63.7906C101.385 63.8197 101.529 63.8641 101.666 63.9232C101.807 63.9813 101.941 64.0523 102.068 64.1352C102.318 64.3045 102.534 64.5205 102.702 64.7714C102.786 64.8955 102.857 65.0276 102.914 65.1657C102.969 65.3058 103.014 65.4498 103.047 65.5965C103.109 65.8937 103.109 66.2005 103.047 66.4977C103.015 66.6446 102.97 66.7887 102.914 66.9285C102.857 67.0677 102.786 67.2008 102.702 67.3261C102.618 67.4457 102.522 67.5567 102.417 67.6574C102.315 67.7624 102.204 67.8578 102.085 67.9424C101.958 68.0253 101.823 68.0963 101.683 68.1545C101.545 68.2135 101.402 68.2579 101.255 68.287C101.1 68.3127 100.943 68.3226 100.787 68.3168Z" fill="#807E7E"/>
<path d="M136.432 81.4778H130.28C131.095 79.8206 131.517 77.9989 131.515 76.1531V75.8781C131.505 73.011 130.477 70.2402 128.616 68.0569C126.754 65.8735 124.178 64.4185 121.344 63.9496C122.803 62.1767 123.726 60.0263 124.006 57.7495C124.286 55.4726 123.911 53.1633 122.926 51.0908C121.941 49.0184 120.385 47.2684 118.441 46.045C116.497 44.8216 114.245 44.1754 111.947 44.1816H86.7386C83.6434 42.6036 81.1516 40.0565 79.645 36.9302C78.1384 33.8039 77.6999 30.2709 78.3967 26.8721C78.461 26.5051 78.4358 26.128 78.3232 25.7728C78.2106 25.4176 78.0139 25.0946 77.7498 24.8313C77.4857 24.5681 77.162 24.3721 76.806 24.2602C76.4499 24.1482 76.0722 24.1235 75.7046 24.1882C71.5727 24.97 67.7681 26.9634 64.7768 29.9138C60.966 33.6956 58.7882 38.8151 58.7087 44.1783H48.0531C45.7544 44.1715 43.5012 44.8176 41.5566 46.0412C39.612 47.2647 38.0562 49.0152 37.0709 51.0882C36.0855 53.1613 35.7113 55.4713 35.9919 57.7487C36.2725 60.026 37.1964 62.1767 38.6556 63.9496C35.8219 64.4185 33.246 65.8735 31.3843 68.0569C29.5226 70.2402 28.4954 73.011 28.4846 75.8781V76.1465C28.483 77.9933 28.9054 79.816 29.7195 81.4745H23.5685C22.9575 81.4745 22.3715 81.7168 21.9395 82.148C21.5074 82.5793 21.2647 83.1642 21.2647 83.774V97.2532C21.2638 97.5557 21.3228 97.8554 21.4382 98.1352C21.5536 98.4149 21.7231 98.6692 21.9371 98.8835C22.1511 99.0977 22.4054 99.2677 22.6853 99.3836C22.9653 99.4996 23.2654 99.5593 23.5685 99.5593H23.7344V109.132C23.7344 127.22 38.5162 141.935 56.6838 141.935H103.31C121.477 141.935 136.259 127.217 136.259 109.132V99.5593H136.425C137.036 99.5593 137.622 99.317 138.054 98.8858C138.486 98.4546 138.729 97.8697 138.729 97.2598V83.7807C138.724 83.1729 138.481 82.5912 138.052 82.1605C137.622 81.7299 137.04 81.4847 136.432 81.4778ZM33.0954 76.1531V75.8781C33.1007 73.8861 33.8974 71.9776 35.3107 70.5712C36.7239 69.1649 38.6384 68.3755 40.634 68.3764H90.9245C91.2346 68.3882 91.5439 68.3373 91.8338 68.227C92.1238 68.1166 92.3885 67.949 92.6121 67.7342C92.8356 67.5193 93.0135 67.2617 93.1349 66.9766C93.2564 66.6916 93.319 66.385 93.319 66.0752C93.319 65.7654 93.2564 65.4589 93.1349 65.1738C93.0135 64.8888 92.8356 64.6311 92.6121 64.4163C92.3885 64.2014 92.1238 64.0338 91.8338 63.9235C91.5439 63.8131 91.2346 63.7623 90.9245 63.774H48.0531C46.059 63.774 44.1466 62.9833 42.7366 61.5759C41.3266 60.1684 40.5344 58.2595 40.5344 56.2691C40.5344 54.2786 41.3266 52.3697 42.7366 50.9622C44.1466 49.5548 46.059 48.7641 48.0531 48.7641H61.1187C61.4419 48.7641 61.7615 48.6961 62.0567 48.5647C62.352 48.4333 62.6162 48.2414 62.8322 48.0014C63.0482 47.7614 63.2112 47.4787 63.3106 47.1716C63.41 46.8646 63.4436 46.5402 63.4091 46.2194C63.1508 43.8351 63.4339 41.4234 64.2373 39.1634C65.0407 36.9033 66.3438 34.8529 68.0498 33.1643C69.6119 31.6198 71.4703 30.406 73.5137 29.5958C73.4163 33.5487 74.472 37.4446 76.5524 40.8095C78.6328 44.1744 81.6482 46.8632 85.2315 48.5487C85.5421 48.6977 85.8828 48.7737 86.2274 48.7707H111.973C113.968 48.7707 115.88 49.5614 117.29 50.9689C118.7 52.3763 119.492 54.2852 119.492 56.2757C119.492 58.2661 118.7 60.175 117.29 61.5825C115.88 62.99 113.968 63.7807 111.973 63.7807C111.362 63.7807 110.776 64.0229 110.344 64.4542C109.912 64.8854 109.67 65.4703 109.67 66.0802C109.67 66.6901 109.912 67.275 110.344 67.7062C110.776 68.1375 111.362 68.3797 111.973 68.3797H119.393C121.383 68.3867 123.289 69.179 124.697 70.5837C126.104 71.9884 126.898 73.8915 126.905 75.8781V76.1465C126.906 77.1375 126.71 78.1189 126.327 79.0332C125.944 79.9476 125.382 80.7764 124.674 81.4712H35.3228C34.6168 80.7765 34.0563 79.9485 33.6739 79.0355C33.2915 78.1225 33.0949 77.1427 33.0954 76.1531ZM25.8921 86.0802H134.108V94.9602H25.8921V86.0802ZM131.658 109.132C131.658 124.682 118.948 137.336 103.319 137.336H56.6904C41.0622 137.336 28.3519 124.682 28.3519 109.132V99.5593H131.648L131.658 109.132Z" fill="#807E7E"/>
<path d="M91.9502 116.471C92.1544 116.471 92.3577 116.443 92.5543 116.388L95.1236 115.692C95.5708 116.386 96.1064 117.019 96.717 117.575L95.1535 119.132C94.7208 119.563 94.4773 120.148 94.4767 120.758C94.4761 121.368 94.7184 121.954 95.1502 122.386C95.582 122.818 96.1681 123.061 96.7794 123.061C97.3907 123.062 97.9772 122.82 98.4099 122.389L100.999 119.811C101.692 119.967 102.4 120.046 103.11 120.046H103.29V123.976C103.29 124.586 103.532 125.171 103.964 125.602C104.396 126.033 104.982 126.276 105.593 126.276C106.204 126.276 106.79 126.033 107.222 125.602C107.654 125.171 107.897 124.586 107.897 123.976V120.046H108.076C108.786 120.046 109.492 119.967 110.184 119.811L112.777 122.389C112.991 122.602 113.245 122.771 113.525 122.886C113.805 123.001 114.104 123.06 114.407 123.06C114.709 123.06 115.009 123 115.288 122.884C115.568 122.768 115.821 122.598 116.035 122.384C116.248 122.17 116.418 121.916 116.533 121.637C116.648 121.358 116.708 121.059 116.707 120.757C116.707 120.455 116.647 120.156 116.53 119.877C116.414 119.598 116.244 119.345 116.03 119.132L114.466 117.575C115.079 117.02 115.616 116.387 116.063 115.692L118.632 116.388C118.829 116.443 119.032 116.471 119.236 116.471C119.793 116.467 120.33 116.263 120.748 115.895C121.165 115.527 121.435 115.021 121.508 114.469C121.581 113.918 121.452 113.359 121.144 112.896C120.836 112.433 120.371 112.096 119.834 111.948L117.547 111.332C117.567 111.09 117.577 110.845 117.577 110.6C117.554 110.004 117.301 109.441 116.871 109.028C116.442 108.615 115.868 108.384 115.271 108.384C114.675 108.384 114.101 108.615 113.671 109.028C113.241 109.441 112.989 110.004 112.966 110.6C112.962 111.888 112.445 113.123 111.531 114.032C110.616 114.941 109.377 115.451 108.086 115.451H103.107C101.82 115.444 100.588 114.929 99.6796 114.019C98.7711 113.109 98.2598 111.878 98.2572 110.593C98.2346 109.998 97.9818 109.435 97.5519 109.021C97.1221 108.608 96.5486 108.378 95.9518 108.378C95.3551 108.378 94.7816 108.608 94.3517 109.021C93.9219 109.435 93.6691 109.998 93.6464 110.593C93.6464 110.838 93.6464 111.083 93.673 111.325L91.3726 111.948C90.8371 112.095 90.3728 112.43 90.0649 112.892C89.757 113.353 89.6261 113.91 89.6963 114.46C89.7665 115.01 90.0331 115.516 90.4472 115.885C90.8612 116.255 91.3949 116.463 91.9502 116.471Z" fill="#807E7E"/>
<path d="M40.7535 116.471C40.9577 116.471 41.161 116.443 41.3577 116.388L43.927 115.693C44.3743 116.387 44.9111 117.02 45.5236 117.575L43.9568 119.132C43.5241 119.563 43.2807 120.148 43.2801 120.758C43.2794 121.368 43.5217 121.954 43.9535 122.386C44.3853 122.818 44.9714 123.061 45.5827 123.061C46.194 123.062 46.7806 122.82 47.2133 122.389L49.8058 119.811C50.4975 119.967 51.2045 120.046 51.9137 120.046H52.0896V123.976C52.1122 124.571 52.365 125.135 52.7949 125.548C53.2248 125.961 53.7983 126.192 54.395 126.192C54.9917 126.192 55.5652 125.961 55.9951 125.548C56.425 125.135 56.6778 124.571 56.7004 123.976V120.046H56.8797C57.5888 120.046 58.2958 119.967 58.9875 119.811L61.5801 122.389C61.7943 122.602 62.0486 122.771 62.3283 122.886C62.6079 123.001 62.9076 123.061 63.2102 123.06C63.5127 123.06 63.8122 123 64.0915 122.884C64.3708 122.768 64.6246 122.598 64.8382 122.384C65.0518 122.17 65.2211 121.916 65.3364 121.637C65.4518 121.358 65.5109 121.059 65.5104 120.757C65.51 120.455 65.4499 120.156 65.3337 119.877C65.2175 119.598 65.0474 119.345 64.8332 119.132L63.2697 117.575C63.8822 117.02 64.419 116.387 64.8664 115.693L67.4357 116.388C67.6323 116.443 67.8356 116.471 68.0398 116.471C68.597 116.468 69.1344 116.264 69.5525 115.896C69.9706 115.529 70.2414 115.022 70.3146 114.471C70.3878 113.92 70.2587 113.36 69.951 112.897C69.6433 112.433 69.1778 112.096 68.6407 111.948L66.3402 111.332C66.3602 111.09 66.3701 110.845 66.3701 110.6C66.3475 110.005 66.0947 109.441 65.6648 109.028C65.235 108.615 64.6614 108.384 64.0647 108.384C63.468 108.384 62.8945 108.615 62.4646 109.028C62.0347 109.441 61.782 110.005 61.7593 110.6C61.7549 111.888 61.2388 113.123 60.324 114.032C59.4093 114.941 58.1707 115.452 56.8797 115.451H51.9004C50.6094 115.452 49.3708 114.941 48.456 114.032C47.5413 113.123 47.0251 111.888 47.0207 110.6C46.9981 110.005 46.7453 109.441 46.3154 109.028C45.8856 108.615 45.3121 108.384 44.7153 108.384C44.1186 108.384 43.5451 108.615 43.1152 109.028C42.6854 109.441 42.4326 110.005 42.4099 110.6C42.4099 110.845 42.4099 111.09 42.4365 111.332L40.166 111.948C39.6285 112.096 39.1629 112.433 38.8552 112.897C38.5475 113.361 38.4186 113.921 38.4923 114.473C38.566 115.024 38.8373 115.531 39.256 115.898C39.6748 116.265 40.2126 116.469 40.7701 116.471H40.7535Z" fill="#807E7E"/>
</svg>
