<svg width="209" height="207" viewBox="0 0 209 207" fill="none" xmlns="http://www.w3.org/2000/svg">
<path d="M111.065 41.0502H111.043V66.9895H97.9568V41.0502C97.9568 39.3289 98.6484 37.6781 99.8796 36.461C101.111 35.2438 102.781 34.56 104.522 34.56C106.263 34.56 107.933 35.2438 109.164 36.461C110.395 37.6781 111.086 39.3289 111.086 41.0502H111.065Z" fill="white"/>
<path d="M111.065 118.808C111.021 120.498 110.311 122.103 109.087 123.283C107.862 124.463 106.22 125.123 104.511 125.123C102.801 125.123 101.159 124.463 99.9349 123.283C98.7106 122.103 98.0007 120.498 97.9568 118.808C97.9568 115.242 104.509 108.005 104.509 108.005C104.509 108.005 111.065 115.242 111.065 118.808Z" fill="#9FBFCC"/>
<path d="M104.5 125.285C106.238 125.285 107.905 124.603 109.134 123.389C110.364 122.174 111.055 120.526 111.056 118.808C111.056 115.242 104.5 108.005 104.5 108.005C104.5 108.005 97.9482 115.242 97.9482 118.808C97.947 119.659 98.1157 120.502 98.4446 121.288C98.7734 122.075 99.256 122.789 99.8646 123.391C100.473 123.992 101.196 124.47 101.991 124.795C102.787 125.12 103.639 125.287 104.5 125.285ZM124.173 110.17V146.908H84.8271V99.3676H124.173V110.17Z" fill="white"/>
<path d="M100.164 146.908H108.879V153.385C108.85 154.508 108.381 155.575 107.569 156.361C106.758 157.147 105.67 157.59 104.534 157.596C103.398 157.602 102.305 157.171 101.485 156.394C100.665 155.617 100.184 154.555 100.142 153.432V146.908H100.164Z" fill="#9FBFCC"/>
<path d="M108.858 146.908H124.173V110.17H135.074V155.546C135.072 157.245 134.732 158.928 134.072 160.498C133.412 162.067 132.446 163.493 131.229 164.693C130.011 165.894 128.567 166.845 126.977 167.493C125.388 168.141 123.685 168.473 121.966 168.47H87.0342C85.3138 168.473 83.6098 168.141 82.0196 167.492C80.4294 166.843 78.9842 165.89 77.7667 164.689C76.5492 163.487 75.5834 162.06 74.9244 160.489C74.2653 158.918 73.9261 157.234 73.9261 155.533V110.17H84.8271V146.908H100.164V153.432C100.205 154.554 100.687 155.617 101.507 156.394C102.326 157.171 103.42 157.602 104.556 157.596C105.691 157.59 106.78 157.147 107.591 156.361C108.402 155.575 108.872 154.508 108.901 153.385L108.858 146.908Z" fill="#DBF2F1"/>
<path d="M128.513 110.17V155.546C128.512 157.245 128.171 158.928 127.511 160.498C126.852 162.067 125.885 163.493 124.668 164.693C123.451 165.894 122.006 166.845 120.417 167.493C118.827 168.141 117.125 168.473 115.405 168.47H121.966C123.686 168.473 125.39 168.141 126.98 167.492C128.571 166.843 130.016 165.89 131.233 164.689C132.451 163.487 133.417 162.06 134.076 160.489C134.735 158.918 135.074 157.234 135.074 155.533V110.17H128.513Z" fill="#9FBFCC"/>
<path d="M95.7714 84.2481H100.164V99.3675H84.8271V110.17H73.9261V86.43C73.9256 85.2955 74.1512 84.1721 74.5901 83.1238C75.029 82.0756 75.6725 81.1231 76.484 80.3209C77.2954 79.5187 78.2588 78.8824 79.3191 78.4485C80.3794 78.0147 81.5158 77.7916 82.6634 77.7922H95.7714V84.2481Z" fill="#E6E9ED"/>
<path d="M108.858 84.2909V99.3675H100.164V84.248H108.879L108.858 84.2909Z" fill="#CCD1D9"/>
<path d="M113.207 84.2481V77.7922H126.337C127.484 77.7916 128.621 78.0147 129.681 78.4485C130.741 78.8824 131.705 79.5187 132.516 80.3209C133.327 81.1231 133.971 82.0756 134.41 83.1238C134.849 84.1721 135.074 85.2955 135.074 86.43V110.17H124.173V99.3675H108.858V84.2481H113.207Z" fill="#E6E9ED"/>
<path d="M126.337 77.7922H119.776C120.924 77.7916 122.06 78.0147 123.12 78.4485C124.181 78.8824 125.144 79.5187 125.956 80.3209C126.767 81.1231 127.411 82.0756 127.849 83.1238C128.288 84.1721 128.514 85.2955 128.513 86.43V110.17H135.074V86.43C135.074 85.2955 134.849 84.1721 134.41 83.1238C133.971 82.0756 133.328 81.1231 132.516 80.3209C131.705 79.5187 130.741 78.8824 129.681 78.4485C128.621 78.0147 127.484 77.7916 126.337 77.7922Z" fill="#CCD1D9"/>
<path d="M113.207 77.7922V84.2481H95.7714V77.7922H113.207Z" fill="#AAB2BD"/>
<path d="M97.9569 66.9895H115.414C115.989 66.9855 116.559 67.0946 117.091 67.3103C117.623 67.5261 118.106 67.8443 118.512 68.2464C118.918 68.6486 119.24 69.1265 119.458 69.6526C119.675 70.1786 119.785 70.7422 119.78 71.3106V77.7922H89.2196V71.3106C89.215 70.7422 89.3248 70.1786 89.5425 69.6526C89.7603 69.1265 90.0817 68.6486 90.488 68.2464C90.8943 67.8443 91.3775 67.5261 91.9093 67.3103C92.4412 67.0946 93.0112 66.9855 93.5861 66.9895H97.9569Z" fill="white"/>
<path d="M87.1252 170.648C83.0701 170.642 79.1829 169.047 76.3159 166.212C73.449 163.377 71.8364 159.533 71.8318 155.524C71.8318 154.951 72.062 154.402 72.4719 153.997C72.8817 153.591 73.4376 153.364 74.0172 153.364C74.5968 153.364 75.1526 153.591 75.5625 153.997C75.9723 154.402 76.2026 154.951 76.2026 155.524C76.206 158.388 77.3578 161.133 79.4053 163.158C81.4528 165.183 84.229 166.323 87.1252 166.327C87.7048 166.327 88.2607 166.555 88.6705 166.96C89.0804 167.365 89.3106 167.915 89.3106 168.488C89.3106 169.061 89.0804 169.61 88.6705 170.015C88.2607 170.42 87.7048 170.648 87.1252 170.648Z" fill="#807E7E"/>
<path d="M122.057 170.648C121.477 170.648 120.921 170.42 120.512 170.015C120.102 169.61 119.871 169.061 119.871 168.488C119.871 167.915 120.102 167.365 120.512 166.96C120.921 166.555 121.477 166.327 122.057 166.327C124.953 166.323 127.73 165.183 129.778 163.158C131.827 161.133 132.979 158.388 132.984 155.524C132.984 154.952 133.214 154.403 133.623 153.998C134.033 153.593 134.588 153.366 135.167 153.366C135.746 153.366 136.301 153.593 136.711 153.998C137.12 154.403 137.35 154.952 137.35 155.524C137.346 159.533 135.733 163.377 132.866 166.212C129.999 169.047 126.112 170.642 122.057 170.648Z" fill="#807E7E"/>
<path d="M74.0172 157.698C73.4422 157.698 72.8908 157.472 72.4842 157.07C72.0776 156.668 71.8492 156.123 71.8492 155.554V86.4215C71.8492 85.8485 72.0794 85.2989 72.4893 84.8937C72.8991 84.4886 73.455 84.2609 74.0346 84.2609C74.6142 84.2609 75.17 84.4886 75.5799 84.8937C75.9897 85.2989 76.22 85.8485 76.22 86.4215V155.537C76.2223 155.823 76.1668 156.106 76.0567 156.371C75.9467 156.635 75.7842 156.875 75.579 157.076C75.3737 157.278 75.1298 157.436 74.8616 157.543C74.5934 157.65 74.3063 157.702 74.0172 157.698Z" fill="#807E7E"/>
<path d="M135.169 157.698C134.594 157.698 134.043 157.472 133.636 157.07C133.23 156.668 133.001 156.123 133.001 155.554V86.4215C133.001 85.849 133.231 85.3 133.641 84.8952C134.05 84.4905 134.605 84.2631 135.184 84.2631C135.763 84.2631 136.319 84.4905 136.728 84.8952C137.138 85.3 137.368 85.849 137.368 86.4215V155.537C137.37 155.823 137.315 156.106 137.205 156.37C137.095 156.634 136.933 156.873 136.728 157.075C136.523 157.276 136.28 157.435 136.012 157.542C135.745 157.649 135.458 157.702 135.169 157.698Z" fill="#807E7E"/>
<path d="M122.057 170.648H87.1252C86.5456 170.648 85.9898 170.42 85.5799 170.015C85.1701 169.61 84.9398 169.061 84.9398 168.488C84.9398 167.915 85.1701 167.365 85.5799 166.96C85.9898 166.555 86.5456 166.327 87.1252 166.327H122.057C122.636 166.327 123.192 166.555 123.602 166.96C124.012 167.365 124.242 167.915 124.242 168.488C124.242 169.061 124.012 169.61 123.602 170.015C123.192 170.42 122.636 170.648 122.057 170.648Z" fill="#807E7E"/>
<path d="M74.0172 88.5863C73.4422 88.5863 72.8908 88.3605 72.4842 87.9585C72.0776 87.5566 71.8492 87.0114 71.8492 86.4429C71.8515 83.5816 73.0019 80.838 75.0481 78.8143C77.0942 76.7907 79.8689 75.6522 82.7631 75.6488C83.3427 75.6488 83.8986 75.8764 84.3085 76.2816C84.7183 76.6868 84.9485 77.2363 84.9485 77.8093C84.9485 78.3823 84.7183 78.9319 84.3085 79.3371C83.8986 79.7422 83.3427 79.9699 82.7631 79.9699C81.0277 79.9721 79.3641 80.655 78.1374 81.8685C76.9107 83.0821 76.2211 84.7272 76.22 86.4429C76.22 86.7273 76.1628 87.0088 76.0517 87.2711C75.9406 87.5335 75.7778 87.7713 75.5728 87.9708C75.3677 88.1703 75.1246 88.3274 74.8576 88.4331C74.5905 88.5388 74.3048 88.5908 74.0172 88.5863Z" fill="#807E7E"/>
<path d="M135.169 88.5863C134.594 88.5863 134.043 88.3605 133.636 87.9585C133.23 87.5566 133.001 87.0114 133.001 86.4429C132.998 84.7249 132.306 83.0783 131.077 81.8635C129.848 80.6487 128.183 79.9647 126.445 79.9613C125.866 79.9613 125.311 79.7339 124.901 79.3291C124.492 78.9244 124.262 78.3754 124.262 77.8029C124.262 77.2305 124.492 76.6815 124.901 76.2767C125.311 75.8719 125.866 75.6445 126.445 75.6445C129.341 75.6479 132.117 76.7867 134.165 78.8111C136.212 80.8354 137.364 83.5801 137.368 86.4429C137.368 86.7269 137.311 87.0081 137.2 87.2702C137.089 87.5322 136.926 87.7698 136.722 87.9692C136.517 88.1687 136.275 88.3259 136.008 88.4319C135.742 88.5378 135.456 88.5903 135.169 88.5863Z" fill="#807E7E"/>
<path d="M126.432 79.9527H82.7415C82.1624 79.9527 81.6071 79.7253 81.1977 79.3205C80.7882 78.9157 80.5582 78.3668 80.5582 77.7943C80.5582 77.2219 80.7882 76.6729 81.1977 76.2681C81.6071 75.8633 82.1624 75.6359 82.7415 75.6359H126.432C127.011 75.6359 127.566 75.8633 127.976 76.2681C128.385 76.6729 128.615 77.2219 128.615 77.7943C128.615 78.3668 128.385 78.9157 127.976 79.3205C127.566 79.7253 127.011 79.9527 126.432 79.9527Z" fill="#807E7E"/>
<path d="M89.3237 79.9528C88.7487 79.9528 88.1972 79.7269 87.7906 79.325C87.384 78.923 87.1556 78.3778 87.1556 77.8094V71.302C87.1556 70.729 87.3859 70.1795 87.7957 69.7743C88.2055 69.3691 88.7614 69.1415 89.341 69.1415C89.9206 69.1415 90.4765 69.3691 90.8863 69.7743C91.2962 70.1795 91.5264 70.729 91.5264 71.302V77.7965C91.5282 78.082 91.4723 78.3649 91.3619 78.6287C91.2516 78.8925 91.089 79.1319 90.8838 79.3327C90.6787 79.5336 90.4349 79.6919 90.167 79.7984C89.8991 79.9048 89.6124 79.9573 89.3237 79.9528Z" fill="#807E7E"/>
<path d="M119.876 79.9527C119.301 79.9527 118.749 79.7269 118.343 79.3249C117.936 78.923 117.708 78.3778 117.708 77.8093V71.302C117.708 70.7296 117.938 70.1806 118.347 69.7758C118.757 69.371 119.312 69.1436 119.891 69.1436C120.47 69.1436 121.025 69.371 121.435 69.7758C121.844 70.1806 122.074 70.7296 122.074 71.302V77.7965C122.076 78.0816 122.02 78.3642 121.91 78.6277C121.8 78.8912 121.638 79.1304 121.433 79.3311C121.228 79.5319 120.985 79.6903 120.718 79.7971C120.45 79.9038 120.164 79.9567 119.876 79.9527Z" fill="#807E7E"/>
<path d="M89.3236 73.4625C88.7486 73.4625 88.1972 73.2367 87.7906 72.8347C87.384 72.4328 87.1556 71.8876 87.1556 71.3191C87.1532 69.6067 87.8355 67.9627 89.0538 66.7454C90.2721 65.5281 91.9277 64.8362 93.6597 64.8204C93.9467 64.8204 94.2309 64.8763 94.4961 64.9848C94.7612 65.0934 95.0021 65.2526 95.205 65.4532C95.408 65.6538 95.569 65.892 95.6788 66.1541C95.7886 66.4162 95.8451 66.6972 95.8451 66.9809C95.8451 67.2646 95.7886 67.5456 95.6788 67.8077C95.569 68.0698 95.408 68.308 95.205 68.5086C95.0021 68.7093 94.7612 68.8684 94.4961 68.977C94.2309 69.0856 93.9467 69.1414 93.6597 69.1414C93.0847 69.1414 92.5333 69.3673 92.1267 69.7692C91.7201 70.1712 91.4917 70.7164 91.4917 71.2848C91.4963 71.5692 91.4436 71.8516 91.3367 72.1156C91.2298 72.3796 91.0709 72.62 90.8691 72.8227C90.6673 73.0253 90.4267 73.1863 90.1614 73.2961C89.8961 73.406 89.6113 73.4625 89.3236 73.4625Z" fill="#807E7E"/>
<path d="M119.876 73.4625C119.301 73.4625 118.749 73.2367 118.343 72.8347C117.936 72.4328 117.708 71.8876 117.708 71.3191C117.708 70.7507 117.479 70.2055 117.073 69.8035C116.666 69.4016 116.115 69.1757 115.54 69.1757C114.96 69.1757 114.404 68.9481 113.994 68.5429C113.585 68.1378 113.354 67.5882 113.354 67.0152C113.354 66.4422 113.585 65.8927 113.994 65.4875C114.404 65.0823 114.96 64.8547 115.54 64.8547C117.277 64.8581 118.942 65.5422 120.17 66.7571C121.398 67.972 122.089 69.6187 122.092 71.3363C122.089 71.6203 122.03 71.9011 121.917 72.1623C121.804 72.4234 121.64 72.6598 121.434 72.8577C121.227 73.0555 120.984 73.2108 120.716 73.3147C120.449 73.4185 120.163 73.4688 119.876 73.4625Z" fill="#807E7E"/>
<path d="M115.505 69.1414H93.6598C93.0802 69.1414 92.5243 68.9138 92.1145 68.5086C91.7046 68.1035 91.4744 67.5539 91.4744 66.9809C91.4744 66.4079 91.7046 65.8584 92.1145 65.4532C92.5243 65.048 93.0802 64.8204 93.6598 64.8204H115.492C116.072 64.8204 116.627 65.048 117.037 65.4532C117.447 65.8584 117.677 66.4079 117.677 66.9809C117.677 67.5539 117.447 68.1035 117.037 68.5086C116.627 68.9138 116.072 69.1414 115.492 69.1414H115.505Z" fill="#807E7E"/>
<path d="M111.143 43.2107C110.568 43.2107 110.016 42.9849 109.61 42.583C109.203 42.181 108.975 41.6358 108.975 41.0674C108.975 39.9213 108.514 38.8223 107.695 38.0119C106.875 37.2015 105.763 36.7463 104.604 36.7463C103.445 36.7463 102.333 37.2015 101.513 38.0119C100.694 38.8223 100.233 39.9213 100.233 41.0674C100.233 41.6404 100.003 42.1899 99.5932 42.5951C99.1834 43.0003 98.6275 43.2279 98.0479 43.2279C97.4683 43.2279 96.9124 43.0003 96.5026 42.5951C96.0927 42.1899 95.8625 41.6404 95.8625 41.0674C95.8625 38.7753 96.7835 36.5771 98.4228 34.9564C100.062 33.3357 102.286 32.4252 104.604 32.4252C106.922 32.4252 109.146 33.3357 110.785 34.9564C112.425 36.5771 113.346 38.7753 113.346 41.0674C113.346 41.3517 113.288 41.6333 113.177 41.8956C113.066 42.1579 112.903 42.3957 112.698 42.5952C112.493 42.7947 112.25 42.9519 111.983 43.0575C111.716 43.1632 111.431 43.2153 111.143 43.2107Z" fill="#807E7E"/>
<path d="M98.0392 69.1414C97.7545 69.1414 97.4726 69.086 97.2096 68.9783C96.9465 68.8706 96.7075 68.7127 96.5062 68.5137C96.3049 68.3146 96.1452 68.0784 96.0362 67.8183C95.9273 67.5583 95.8712 67.2795 95.8712 66.9981V41.0502C95.8712 40.4772 96.1014 39.9276 96.5113 39.5225C96.9211 39.1173 97.477 38.8896 98.0566 38.8896C98.6362 38.8896 99.192 39.1173 99.6019 39.5225C100.012 39.9276 100.242 40.4772 100.242 41.0502V66.9809C100.244 67.2667 100.189 67.5501 100.079 67.8144C99.9686 68.0787 99.8062 68.3186 99.601 68.5199C99.3957 68.7212 99.1518 68.8799 98.8836 68.9867C98.6154 69.0934 98.3283 69.146 98.0392 69.1414Z" fill="#807E7E"/>
<path d="M111.139 69.1414C110.854 69.1414 110.572 69.086 110.309 68.9783C110.046 68.8706 109.807 68.7127 109.605 68.5137C109.404 68.3146 109.244 68.0784 109.136 67.8183C109.027 67.5583 108.97 67.2795 108.97 66.9981V41.0502C108.97 40.4772 109.201 39.9276 109.611 39.5225C110.02 39.1173 110.576 38.8896 111.156 38.8896C111.736 38.8896 112.291 39.1173 112.701 39.5225C113.111 39.9276 113.341 40.4772 113.341 41.0502V66.9809C113.344 67.2667 113.288 67.5501 113.178 67.8144C113.068 68.0787 112.906 68.3186 112.7 68.5199C112.495 68.7212 112.251 68.8799 111.983 68.9867C111.715 69.0934 111.428 69.146 111.139 69.1414Z" fill="#807E7E"/>
<path d="M100.22 155.576C99.6453 155.576 99.0938 155.35 98.6872 154.948C98.2806 154.546 98.0522 154.001 98.0522 153.432V147.002C98.0522 146.429 98.2825 145.88 98.6923 145.474C99.1021 145.069 99.658 144.842 100.238 144.842C100.817 144.842 101.373 145.069 101.783 145.474C102.193 145.88 102.423 146.429 102.423 147.002V153.432C102.423 153.717 102.366 153.998 102.255 154.261C102.144 154.523 101.981 154.761 101.776 154.96C101.571 155.16 101.328 155.317 101.061 155.423C100.794 155.528 100.508 155.58 100.22 155.576Z" fill="#807E7E"/>
<path d="M108.94 155.576C108.365 155.576 107.814 155.35 107.407 154.948C107.001 154.546 106.772 154.001 106.772 153.432V147.002C106.772 146.429 107.002 145.88 107.412 145.474C107.822 145.069 108.378 144.842 108.958 144.842C109.537 144.842 110.093 145.069 110.503 145.474C110.913 145.88 111.143 146.429 111.143 147.002V153.432C111.143 153.717 111.086 153.998 110.975 154.261C110.863 154.523 110.701 154.761 110.496 154.96C110.291 155.16 110.048 155.317 109.781 155.423C109.513 155.528 109.228 155.58 108.94 155.576Z" fill="#807E7E"/>
<path d="M104.591 159.867C102.853 159.866 101.186 159.182 99.9564 157.967C98.7271 156.752 98.036 155.104 98.0349 153.385C98.0349 152.812 98.2651 152.263 98.675 151.858C99.0848 151.452 99.6407 151.225 100.22 151.225C100.8 151.225 101.356 151.452 101.766 151.858C102.175 152.263 102.406 152.812 102.406 153.385C102.406 153.958 102.636 154.508 103.046 154.913C103.456 155.318 104.011 155.546 104.591 155.546C105.171 155.546 105.727 155.318 106.136 154.913C106.546 154.508 106.776 153.958 106.776 153.385C106.776 152.813 107.006 152.264 107.416 151.859C107.825 151.454 108.381 151.227 108.96 151.227C109.539 151.227 110.094 151.454 110.503 151.859C110.913 152.264 111.143 152.813 111.143 153.385C111.142 155.103 110.451 156.751 109.223 157.966C107.995 159.181 106.329 159.865 104.591 159.867Z" fill="#807E7E"/>
<path d="M124.255 149.056H84.9225C84.3475 149.056 83.796 148.83 83.3895 148.428C82.9829 148.026 82.7545 147.481 82.7545 146.912V99.3676C82.7545 98.7991 82.9829 98.2539 83.3895 97.852C83.796 97.45 84.3475 97.2242 84.9225 97.2242H124.255C124.83 97.2242 125.382 97.45 125.788 97.852C126.195 98.2539 126.423 98.7991 126.423 99.3676V146.895C126.426 147.178 126.371 147.459 126.263 147.721C126.155 147.983 125.996 148.221 125.794 148.422C125.593 148.623 125.353 148.782 125.089 148.891C124.825 149 124.541 149.056 124.255 149.056ZM87.1079 144.739H122.07V101.528H87.1079V144.739Z" fill="#807E7E"/>
<path d="M108.953 101.528C108.378 101.528 107.827 101.302 107.42 100.9C107.014 100.498 106.785 99.9532 106.785 99.3847V84.2781C106.785 83.7056 107.015 83.1566 107.425 82.7519C107.834 82.3471 108.389 82.1197 108.968 82.1197C109.547 82.1197 110.103 82.3471 110.512 82.7519C110.922 83.1566 111.152 83.7056 111.152 84.2781V99.3676C111.154 99.653 111.099 99.9361 110.989 100.2C110.879 100.464 110.717 100.704 110.512 100.905C110.307 101.106 110.064 101.265 109.796 101.372C109.529 101.479 109.242 101.532 108.953 101.528Z" fill="#807E7E"/>
<path d="M100.22 101.528C99.6453 101.528 99.0938 101.302 98.6872 100.9C98.2806 100.498 98.0522 99.9532 98.0522 99.3847V84.2781C98.0522 83.7051 98.2825 83.1555 98.6923 82.7504C99.1021 82.3452 99.658 82.1176 100.238 82.1176C100.817 82.1176 101.373 82.3452 101.783 82.7504C102.193 83.1555 102.423 83.7051 102.423 84.2781V99.3675C102.425 99.6534 102.37 99.9368 102.26 100.201C102.15 100.465 101.987 100.705 101.782 100.907C101.577 101.108 101.333 101.267 101.065 101.373C100.796 101.48 100.509 101.533 100.22 101.528Z" fill="#807E7E"/>
<path d="M113.289 86.4129H95.8581C95.2785 86.4129 94.7227 86.1853 94.3128 85.7801C93.903 85.3749 93.6727 84.8254 93.6727 84.2523C93.6727 83.6793 93.903 83.1298 94.3128 82.7246C94.7227 82.3194 95.2785 82.0918 95.8581 82.0918H113.289C113.869 82.0918 114.425 82.3194 114.835 82.7246C115.244 83.1298 115.475 83.6793 115.475 84.2523C115.475 84.8254 115.244 85.3749 114.835 85.7801C114.425 86.1853 113.869 86.4129 113.289 86.4129Z" fill="#807E7E"/>
<path d="M113.289 86.4129C112.714 86.4129 112.163 86.1871 111.756 85.7851C111.35 85.3832 111.121 84.838 111.121 84.2695V77.7708C111.121 77.1978 111.351 76.6482 111.761 76.243C112.171 75.8379 112.727 75.6102 113.307 75.6102C113.886 75.6102 114.442 75.8379 114.852 76.243C115.262 76.6482 115.492 77.1978 115.492 77.7708V84.2524C115.494 84.5382 115.439 84.8216 115.329 85.0859C115.219 85.3502 115.056 85.5901 114.851 85.7914C114.646 85.9927 114.402 86.1514 114.134 86.2581C113.865 86.3649 113.578 86.4175 113.289 86.4129Z" fill="#807E7E"/>
<path d="M95.8582 86.4129C95.2832 86.4129 94.7317 86.1871 94.3251 85.7851C93.9185 85.3832 93.6901 84.838 93.6901 84.2695V77.7708C93.6901 77.1978 93.9204 76.6482 94.3302 76.243C94.7401 75.8379 95.2959 75.6102 95.8755 75.6102C96.4551 75.6102 97.011 75.8379 97.4208 76.243C97.8307 76.6482 98.0609 77.1978 98.0609 77.7708V84.2524C98.0633 84.5382 98.0078 84.8216 97.8977 85.0859C97.7876 85.3502 97.6251 85.5901 97.4199 85.7914C97.2147 85.9927 96.9708 86.1514 96.7025 86.2581C96.4343 86.3649 96.1473 86.4175 95.8582 86.4129Z" fill="#807E7E"/>
<path d="M104.591 127.45C102.274 127.448 100.053 126.537 98.4139 124.918C96.7752 123.299 95.8529 121.103 95.8495 118.812C95.8495 114.62 101.777 107.877 102.965 106.565C103.175 106.348 103.428 106.176 103.707 106.059C103.987 105.941 104.287 105.88 104.591 105.88C104.895 105.88 105.195 105.941 105.475 106.059C105.754 106.176 106.007 106.348 106.217 106.565C107.405 107.851 113.328 114.62 113.328 118.812C113.326 121.103 112.405 123.298 110.767 124.918C109.129 126.537 106.908 127.448 104.591 127.45ZM104.591 111.353C102.271 114.217 100.22 117.436 100.22 118.812C100.256 119.934 100.732 120.998 101.547 121.779C102.363 122.561 103.454 122.997 104.589 122.997C105.724 122.997 106.815 122.561 107.63 121.779C108.446 120.998 108.922 119.934 108.958 118.812C108.958 117.458 106.911 114.234 104.591 111.353Z" fill="#807E7E"/>
<path d="M113.328 133.923H95.8495C95.2705 133.923 94.7151 133.696 94.3057 133.291C93.8963 132.886 93.6663 132.337 93.6663 131.765C93.6663 131.192 93.8963 130.643 94.3057 130.239C94.7151 129.834 95.2705 129.607 95.8495 129.607H113.328C113.907 129.607 114.463 129.834 114.872 130.239C115.281 130.643 115.512 131.192 115.512 131.765C115.512 132.337 115.281 132.886 114.872 133.291C114.463 133.696 113.907 133.923 113.328 133.923Z" fill="#807E7E"/>
<path d="M108.958 140.405H100.22C99.6407 140.405 99.0848 140.177 98.675 139.772C98.2651 139.367 98.0349 138.817 98.0349 138.244C98.0349 137.671 98.2651 137.122 98.675 136.717C99.0848 136.311 99.6407 136.084 100.22 136.084H108.958C109.537 136.084 110.093 136.311 110.503 136.717C110.913 137.122 111.143 137.671 111.143 138.244C111.143 138.817 110.913 139.367 110.503 139.772C110.093 140.177 109.537 140.405 108.958 140.405Z" fill="#807E7E"/>
<path d="M84.9225 112.335H73.8308C73.2512 112.335 72.6953 112.107 72.2855 111.702C71.8756 111.297 71.6454 110.748 71.6454 110.175C71.6454 109.602 71.8756 109.052 72.2855 108.647C72.6953 108.242 73.2512 108.014 73.8308 108.014H84.9225C85.5021 108.014 86.058 108.242 86.4678 108.647C86.8777 109.052 87.1079 109.602 87.1079 110.175C87.1079 110.748 86.8777 111.297 86.4678 111.702C86.058 112.107 85.5021 112.335 84.9225 112.335Z" fill="#807E7E"/>
<path d="M135.169 112.335H124.255C123.676 112.335 123.12 112.107 122.71 111.702C122.3 111.297 122.07 110.748 122.07 110.175C122.07 109.602 122.3 109.052 122.71 108.647C123.12 108.242 123.676 108.014 124.255 108.014H135.169C135.749 108.014 136.305 108.242 136.715 108.647C137.124 109.052 137.355 109.602 137.355 110.175C137.355 110.748 137.124 111.297 136.715 111.702C136.305 112.107 135.749 112.335 135.169 112.335Z" fill="#807E7E"/>
</svg>
