<svg height="130pt" viewBox="-136 0 512 512.032" width="130pt" xmlns="http://www.w3.org/2000/svg"><path d="m144.351562 32.015625h-.078124v96.082031h-47.921876v-96.082031h-.078124c0-13.28125 10.796874-24 24.078124-24 13.199219 0 24 10.71875 24 24zm0 0" fill="#545c66"/><path d="m144.351562 320.015625c0 13.28125-10.800781 24-24 24-13.28125 0-24-10.71875-24-24 0-13.199219 24-40 24-40s24 26.800781 24 40zm0 0" fill="#ffce54"/><path d="m120.351562 344.015625c13.199219 0 24-10.71875 24-24 0-13.199219-24-40-24-40s-24 26.800781-24 40c0 13.28125 10.71875 24 24 24zm72-55.917969v136h-144.078124v-176.082031h144.078124zm0 0" fill="#656d78"/><path d="m104.351562 424.097656h31.921876v24h.078124c0 8.878906-7.199218 16-16 16-8.800781 0-15.917968-7.042968-16-15.832031 0-.089844 0-.089844 0-.167969zm0 0" fill="#f6bb42"/><path d="m136.273438 424.097656h56.078124v-136h39.921876v168c-.082032 26.558594-21.441407 47.917969-48 47.917969h-127.921876c-26.558593 0-47.917968-21.359375-48-47.917969v-168h39.921876v136h56.078124v24 .167969c.082032 8.796875 7.199219 15.832031 16 15.832031 8.800782 0 16-7.121094 16-16h-.078124zm0 0" fill="#ffce54"/><path d="m208.246094 288.097656v168c-.078125 26.558594-21.4375 47.917969-48 47.917969h24.027344c26.558593 0 47.917968-21.359375 48-47.917969v-168zm0 0" fill="#f6bb42"/><path d="m88.351562 192.015625h16v56h-56.078124v40.082031h-39.921876v-88c0-17.683594 14.320313-32 32-32h48zm0 0" fill="#e6e9ed"/><path d="m136.273438 192.175781v55.839844h-31.921876v-56h31.921876zm0 0" fill="#ccd1d9"/><path d="m152.191406 192.015625v-23.917969h48.082032c17.679687 0 32 14.316406 32 32v88h-39.921876v-40.082031h-56.078124v-56zm0 0" fill="#e6e9ed"/><path d="m200.273438 168.097656h-24.027344c17.683594 0 32 14.316406 32 32v88h24.027344v-88c0-17.683594-14.320313-32-32-32zm0 0" fill="#ccd1d9"/><path d="m152.191406 168.097656v23.917969h-63.839844v-23.917969zm0 0" fill="#aab2bd"/><path d="m96.351562 128.097656h63.921876c8.871093 0 16 7.125 16 16v24h-111.921876v-24c0-8.875 7.121094-16 16-16zm0 0" fill="#656d78"/><path d="m56.6875 512.03125c-30.871094 0-56-25.128906-56-56.015625 0-4.421875 3.578125-8 8-8 4.425781 0 8 3.578125 8 8 0 22.0625 17.945312 40.015625 40 40.015625 4.425781 0 8 3.578125 8 8 0 4.425781-3.574219 8-8 8zm0 0"/><path d="m184.609375 512.03125c-4.425781 0-8-3.574219-8-8 0-4.421875 3.574219-8 8-8 22.054687 0 40-17.953125 40-40.015625 0-4.421875 3.574219-8 8-8 4.421875 0 8 3.578125 8 8 0 30.886719-25.128906 56.015625-56 56.015625zm0 0"/><path d="m8.6875 464.0625c-4.421875 0-8-3.574219-8-8v-256c0-4.421875 3.578125-8 8-8 4.425781 0 8 3.578125 8 8v256c0 4.425781-3.574219 8-8 8zm0 0"/><path d="m232.609375 464.0625c-4.425781 0-8-3.574219-8-8v-256c0-4.421875 3.574219-8 8-8 4.421875 0 8 3.578125 8 8v256c0 4.425781-3.578125 8-8 8zm0 0"/><path d="m184.609375 512.03125h-127.921875c-4.421875 0-8-3.574219-8-8 0-4.421875 3.578125-8 8-8h127.921875c4.421875 0 8 3.578125 8 8 0 4.425781-3.578125 8-8 8zm0 0"/><path d="m8.6875 208.078125c-4.421875 0-8-3.574219-8-8 0-22.046875 17.929688-39.980469 39.96875-39.980469 4.421875 0 8 3.574219 8 8 0 4.421875-3.578125 8-8 8-13.214844 0-23.96875 10.757813-23.96875 23.980469 0 4.425781-3.574219 8-8 8zm0 0"/><path d="m232.609375 208.078125c-4.425781 0-8-3.574219-8-8 0-13.230469-10.769531-24-24-24-4.425781 0-8-3.574219-8-8 0-4.421875 3.574219-8 8-8 22.054687 0 40 17.945313 40 40 0 4.425781-3.578125 8-8 8zm0 0"/><path d="m200.625 176.113281h-159.984375c-4.425781 0-8-3.578125-8-8 0-4.425781 3.574219-8 8-8h159.984375c4.421875 0 8 3.574219 8 8 0 4.421875-3.578125 8-8 8zm0 0"/><path d="m64.671875 176.113281c-4.425781 0-8-3.578125-8-8v-24.050781c0-4.421875 3.574219-8 8-8s8 3.578125 8 8v24.050781c0 4.414063-3.574219 8-8 8zm0 0"/><path d="m176.609375 176.113281c-4.425781 0-8-3.578125-8-8v-24.050781c0-4.421875 3.574219-8 8-8 4.421875 0 8 3.578125 8 8v24.050781c0 4.414063-3.578125 8-8 8zm0 0"/><path d="m64.671875 152.0625c-4.425781 0-8-3.574219-8-8 0-13.230469 10.769531-24 24-24 4.425781 0 8 3.578125 8 8 0 4.425781-3.574219 8-8 8-4.414063 0-8 3.585938-8 8 0 4.425781-3.574219 8-8 8zm0 0"/><path d="m176.609375 152.0625c-4.425781 0-8-3.574219-8-8 0-4.414062-3.585937-8-8-8-4.425781 0-8-3.574219-8-8 0-4.421875 3.574219-8 8-8 13.230469 0 24 10.769531 24 24 0 4.425781-3.578125 8-8 8zm0 0"/><path d="m160.609375 136.0625h-79.9375c-4.425781 0-8-3.574219-8-8 0-4.421875 3.574219-8 8-8h79.9375c4.421875 0 8 3.578125 8 8 0 4.425781-3.578125 8-8 8zm0 0"/><path d="m144.640625 40.015625c-4.425781 0-8-3.574219-8-8 0-8.832031-7.175781-16.015625-16-16.015625-8.832031 0-16.015625 7.183594-16.015625 16.015625 0 4.425781-3.578125 8-8 8-4.425781 0-8-3.574219-8-8 0-17.65625 14.359375-32.015625 32.015625-32.015625 17.648437 0 32 14.359375 32 32.015625 0 4.425781-3.578125 8-8 8zm0 0"/><path d="m96.65625 136.0625c-4.425781 0-8-3.574219-8-8v-96.046875c0-4.421875 3.574219-8 8-8 4.421875 0 8 3.578125 8 8v96.046875c0 4.425781-3.578125 8-8 8zm0 0"/><path d="m144.625 136.0625c-4.425781 0-8-3.574219-8-8v-96.046875c0-4.421875 3.574219-8 8-8 4.421875 0 8 3.578125 8 8v96.046875c0 4.425781-3.578125 8-8 8zm0 0"/><path d="m104.640625 456.214844c-4.425781 0-8-3.574219-8-8v-23.855469c0-4.421875 3.574219-8 8-8 4.421875 0 8 3.578125 8 8v23.855469c0 4.425781-3.578125 8-8 8zm0 0"/><path d="m136.574219 456.214844c-4.421875 0-8-3.574219-8-8v-23.855469c0-4.421875 3.578125-8 8-8 4.425781 0 8 3.578125 8 8v23.855469c0 4.425781-3.574219 8-8 8zm0 0"/><path d="m120.640625 472.097656c-13.234375 0-24-10.769531-24-24 0-4.425781 3.574219-8 8-8 4.421875 0 8 3.574219 8 8 0 4.414063 3.582031 8 8 8 4.414063 0 8-3.585937 8-8 0-4.425781 3.574219-8 8-8 4.421875 0 8 3.574219 8 8 0 13.230469-10.769531 24-24 24zm0 0"/><path d="m192.65625 432.0625h-144.03125c-4.425781 0-8-3.574219-8-8v-176.046875c0-4.421875 3.574219-8 8-8h144.03125c4.421875 0 8 3.578125 8 8v176.046875c0 4.425781-3.578125 8-8 8zm-136.03125-16h128.03125v-160.046875h-128.03125zm0 0"/><path d="m136.625 256.015625c-4.425781 0-8-3.574219-8-8v-55.886719c0-4.425781 3.574219-8 8-8 4.421875 0 8 3.574219 8 8v55.886719c0 4.425781-3.578125 8-8 8zm0 0"/><path d="m104.640625 256.015625c-4.425781 0-8-3.574219-8-8v-55.886719c0-4.425781 3.574219-8 8-8 4.421875 0 8 3.574219 8 8v55.886719c0 4.425781-3.578125 8-8 8zm0 0"/><path d="m152.496094 200.03125h-63.832032c-4.425781 0-8-3.574219-8-8 0-4.421875 3.574219-8 8-8h63.832032c4.425781 0 8 3.578125 8 8 0 4.425781-3.574219 8-8 8zm0 0"/><path d="m152.496094 200.03125c-4.425782 0-8-3.574219-8-8v-24c0-4.421875 3.574218-8 8-8 4.425781 0 8 3.578125 8 8v24c0 4.425781-3.574219 8-8 8zm0 0"/><path d="m88.671875 200.03125c-4.425781 0-8-3.574219-8-8v-24c0-4.421875 3.574219-8 8-8s8 3.578125 8 8v24c0 4.425781-3.574219 8-8 8zm0 0"/><path d="m120.640625 352.03125c-17.648437 0-32-14.351562-32-32 0-15.519531 21.695313-40.503906 26.046875-45.359375 3.03125-3.375 8.871094-3.375 11.90625 0 4.351562 4.847656 26.046875 29.832031 26.046875 45.359375 0 17.648438-14.351563 32-32 32zm0-59.617188c-8.488281 10.609376-16 22.523438-16 27.617188 0 8.824219 7.175781 16 16 16s16-7.175781 16-16c0-4.953125-7.496094-16.953125-16-27.617188zm0 0"/><path d="m152.640625 376.015625h-64c-4.425781 0-8-3.574219-8-8 0-4.421875 3.574219-8 8-8h64c4.421875 0 8 3.578125 8 8 0 4.425781-3.578125 8-8 8zm0 0"/><path d="m136.640625 400.015625h-32c-4.425781 0-8-3.574219-8-8 0-4.421875 3.574219-8 8-8h32c4.421875 0 8 3.578125 8 8 0 4.425781-3.578125 8-8 8zm0 0"/><path d="m48.625 296.046875h-40.609375c-4.421875 0-8-3.574219-8-8 0-4.421875 3.578125-8 8-8h40.609375c4.421875 0 8 3.578125 8 8 0 4.425781-3.578125 8-8 8zm0 0"/><path d="m232.609375 296.046875h-39.953125c-4.425781 0-8-3.574219-8-8 0-4.421875 3.574219-8 8-8h39.953125c4.421875 0 8 3.578125 8 8 0 4.425781-3.578125 8-8 8zm0 0"/></svg>