<?xml version="1.0" encoding="iso-8859-1"?>
<!-- Generator: Adobe Illustrator 19.0.0, SVG Export Plug-In . SVG Version: 6.00 Build 0)  -->
<svg version="1.1" id="Capa_1" xmlns="http://www.w3.org/2000/svg" xmlns:xlink="http://www.w3.org/1999/xlink" x="0px" y="0px"
	 viewBox="0 0 512 512" style="enable-background:new 0 0 512 512;" xml:space="preserve">
<g>
	<path style="fill:#FFB546;" d="M106.668,418.133h85.333v51.2h-85.333V418.133z"/>
	<path style="fill:#FFB546;" d="M294.401,392.533h170.667v110.933H294.401V392.533z"/>
</g>
<g>
	<path style="fill:#6F3114;" d="M294.401,341.333h170.667v51.2H294.401V341.333z"/>
	<path style="fill:#6F3114;" d="M106.668,469.333h85.333v34.133h-85.333V469.333z"/>
</g>
<path style="fill:#095891;" d="M46.935,8.533h204.8V51.2h-204.8V8.533z"/>
<path style="fill:#106AAB;" d="M106.668,418.133h-2.304c-13.21,0.009-24.235-10.061-25.429-23.211l-32-343.723h204.8l-32,343.723
	c-1.195,13.15-12.22,23.219-25.429,23.211h-2.304"/>
<g>
	<path style="fill:#9ED4FA;" d="M186.455,392.533h-74.24v-17.067h66.466l2.355-24.951l16.99,1.604l-3.072,32.683
		C194.536,389.188,190.858,392.533,186.455,392.533z"/>
	<path style="fill:#9ED4FA;" d="M219.615,120.252l-16.998-1.57l2.304-24.815h-12.919V76.8h22.272c4.71-0.017,8.55,3.78,8.567,8.499
		c0,0.273-0.009,0.546-0.034,0.819L219.615,120.252z"/>
</g>
<g>
	<path style="fill:#137AC4;" d="M72.535,25.6h17.067v25.6H72.535V25.6z"/>
	<path style="fill:#137AC4;" d="M106.668,25.6h17.067v25.6h-17.067V25.6z"/>
	<path style="fill:#137AC4;" d="M140.801,25.6h17.067v25.6h-17.067V25.6z"/>
	<path style="fill:#137AC4;" d="M174.935,25.6h17.067v25.6h-17.067V25.6z"/>
	<path style="fill:#137AC4;" d="M209.068,25.6h17.067v25.6h-17.067V25.6z"/>
</g>
<path style="fill:#FFB546;" d="M98.135,213.333h102.4V307.2h-102.4V213.333z"/>
<path d="M251.735,59.733h-204.8c-4.71,0-8.533-3.823-8.533-8.533V8.533c0-4.71,3.823-8.533,8.533-8.533h204.8
	c4.71,0,8.533,3.823,8.533,8.533V51.2C260.268,55.91,256.445,59.733,251.735,59.733z M55.468,42.667h187.733v-25.6H55.468V42.667z"
	/>
<path d="M194.271,426.667h-89.873c-17.732,0-32.341-13.321-33.98-30.967L38.435,51.994c-0.222-2.389,0.572-4.77,2.185-6.537
	c1.621-1.775,3.917-2.79,6.315-2.79h204.8c2.398,0,4.693,1.015,6.306,2.79c1.613,1.775,2.406,4.147,2.185,6.537l-31.974,343.706
	C226.612,413.346,212.003,426.667,194.271,426.667z M56.296,59.733l31.113,334.387c0.819,8.823,8.124,15.479,16.99,15.479h89.873
	c8.866,0,16.171-6.656,16.99-15.479l31.113-334.387H56.296z"/>
<path d="M186.489,392.533H112.18v-17.067h66.534l2.321-24.934l16.99,1.587l-3.046,32.674
	C194.578,389.171,190.892,392.533,186.489,392.533z"/>
<path d="M219.59,120.26l-16.99-1.587l2.313-24.806h-12.911V76.8h22.272c2.398,0,4.693,1.015,6.306,2.79
	c1.613,1.775,2.415,4.147,2.185,6.537L219.59,120.26z"/>
<path d="M192.001,477.867h-85.333c-4.71,0-8.533-3.814-8.533-8.533v-51.2c0-4.719,3.823-8.533,8.533-8.533h85.333
	c4.71,0,8.533,3.814,8.533,8.533v51.2C200.535,474.052,196.712,477.867,192.001,477.867z M115.201,460.8h68.267v-34.133h-68.267
	V460.8z"/>
<path d="M192.001,512h-85.333c-4.71,0-8.533-3.814-8.533-8.533v-34.133c0-4.719,3.823-8.533,8.533-8.533h85.333
	c4.71,0,8.533,3.814,8.533,8.533v34.133C200.535,508.186,196.712,512,192.001,512z M115.201,494.933h68.267v-17.067h-68.267V494.933
	z"/>
<rect x="72.535" y="25.6" width="17.067" height="25.6"/>
<rect x="106.668" y="25.6" width="17.067" height="25.6"/>
<rect x="140.801" y="25.6" width="17.067" height="25.6"/>
<rect x="174.935" y="25.6" width="17.067" height="25.6"/>
<rect x="209.068" y="25.6" width="17.067" height="25.6"/>
<path d="M200.535,315.733h-102.4c-4.71,0-8.533-3.814-8.533-8.533v-93.867c0-4.71,3.823-8.533,8.533-8.533h102.4
	c4.71,0,8.533,3.823,8.533,8.533V307.2C209.068,311.919,205.245,315.733,200.535,315.733z M106.668,298.667h85.333v-76.8h-85.333
	V298.667z"/>
<path d="M465.068,512H294.401c-4.719,0-8.533-3.814-8.533-8.533V392.533c0-4.719,3.814-8.533,8.533-8.533h170.667
	c4.719,0,8.533,3.814,8.533,8.533v110.933C473.601,508.186,469.787,512,465.068,512z M302.935,494.933h153.6v-93.867h-153.6V494.933
	z"/>
<path d="M465.068,401.067H294.401c-4.719,0-8.533-3.814-8.533-8.533v-51.2c0-4.719,3.814-8.533,8.533-8.533h170.667
	c4.719,0,8.533,3.814,8.533,8.533v51.2C473.601,397.252,469.787,401.067,465.068,401.067z M302.935,384h153.6v-34.133h-153.6V384z"
	/>
<g>
</g>
<g>
</g>
<g>
</g>
<g>
</g>
<g>
</g>
<g>
</g>
<g>
</g>
<g>
</g>
<g>
</g>
<g>
</g>
<g>
</g>
<g>
</g>
<g>
</g>
<g>
</g>
<g>
</g>
</svg>
