<svg height="142pt" viewBox="-48 0 480 480" width="142pt" xmlns="http://www.w3.org/2000/svg"><path d="m376 192c0 128.128906-82.398438 280-184 280s-184-151.871094-184-280 82.398438-184 184-184 184 55.871094 184 184zm0 0" fill="#f3e7da"/><g fill="#f7cca9"><path d="m168 176c0-17.671875-21.492188-32-48-32s-48 14.328125-48 32 21.492188 32 48 32 48-14.328125 48-32zm0 0"/><path d="m312 176c0-17.671875-21.492188-32-48-32s-48 14.328125-48 32 21.492188 32 48 32 48-14.328125 48-32zm0 0"/><path d="m192 280c-22.808594 0-40-10.320312-40-24 0-4.417969 3.582031-8 8-8s8 3.582031 8 8c0 1.992188 8.511719 8 24 8s24-6.007812 24-8c0-4.417969 3.582031-8 8-8s8 3.582031 8 8c0 13.679688-17.191406 24-40 24zm0 0"/><path d="m248 336c0-17.671875-25.070312-32-56-32s-56 14.328125-56 32 25.070312 32 56 32 56-14.328125 56-32zm0 0"/><path d="m323.585938 367.3125-33.1875-13.457031c-4.09375-1.660157-8.761719.3125-10.421876 4.410156-1.660156 4.09375.3125 8.761719 4.40625 10.421875l33.21875 13.457031c.902344.355469 1.859376.539063 2.832032.550781 2.429687-3.839843 4.796875-7.757812 7.09375-11.757812-.847656-1.632812-2.246094-2.917969-3.941406-3.625zm0 0"/><path d="m320 120c1.238281 0 2.460938-.289062 3.566406-.839844l32-16c.960938-.476562 1.8125-1.144531 2.503906-1.960937-2.101562-4.558594-4.40625-8.910157-6.847656-13.121094-.976562.09375-1.929687.363281-2.808594.800781l-32 16c-3.277343 1.679688-4.984374 5.382813-4.136718 8.964844.851562 3.585938 4.039062 6.128906 7.722656 6.15625zm0 0"/><path d="m92.425781 352.839844-32 16c-1.382812.734375-2.511719 1.867187-3.242187 3.25 2.335937 4.046875 4.753906 8 7.199218 11.863281 1.113282-.039063 2.203126-.3125 3.203126-.800781l32-16c3.953124-1.976563 5.558593-6.78125 3.582031-10.738282-1.976563-3.953124-6.78125-5.558593-10.734375-3.582031zm0 0"/><path d="m67.574219 104.839844-32-16c-.875-.4375-1.828125-.710938-2.804688-.800782-2.402343 4.207032-4.746093 8.5625-6.847656 13.121094.691406.816406 1.542969 1.484375 2.503906 1.960938l32 16c3.953125 1.972656 8.757813.371094 10.734375-3.585938 1.976563-3.953125.371094-8.761718-3.585937-10.734375zm0 0"/></g><path d="m192 480c106.398438 0 192-157.550781 192-288 0-120.222656-71.777344-192-192-192s-192 71.777344-192 192c0 130.449219 85.601562 288 192 288zm-158.742188-374.398438 27.199219 13.597657c3.953125 1.976562 8.761719.371093 10.734375-3.582031 1.976563-3.957032.371094-8.761719-3.582031-10.738282l-26.890625-13.4375c28.503906-48.363281 80.730469-75.441406 151.28125-75.441406s122.777344 27.078125 151.3125 75.398438l-26.886719 13.441406c-3.957031 1.976562-5.5625 6.78125-3.585937 10.734375 1.976562 3.957031 6.78125 5.5625 10.734375 3.585937l27.203125-13.601562c11.914062 27.234375 17.789062 56.722656 17.222656 86.441406.179688 61.644531-16.117188 122.214844-47.199219 175.449219l-29.214843-14.609375c-3.957032-1.976563-8.761719-.371094-10.738282 3.585937-1.976562 3.953125-.371094 8.757813 3.585938 10.734375l27.765625 13.878906c-34.351563 51.167969-79.398438 82.960938-120.199219 82.960938s-85.847656-31.792969-120.191406-82.960938l27.765625-13.839843c3.957031-1.972657 5.5625-6.78125 3.585937-10.734375-1.976562-3.957032-6.78125-5.558594-10.734375-3.585938l-29.226562 14.570313c-31.082031-53.234375-47.378907-113.804688-47.199219-175.449219-.550781-29.707031 5.335938-59.183594 17.257812-86.398438zm0 0"/><path d="m120 216c31.398438 0 56-17.601562 56-40s-24.601562-40-56-40-56 17.601562-56 40 24.601562 40 56 40zm0-64c21.679688 0 40 10.992188 40 24s-18.320312 24-40 24-40-10.992188-40-24 18.320312-24 40-24zm0 0"/><path d="m264 216c31.398438 0 56-17.601562 56-40s-24.601562-40-56-40-56 17.601562-56 40 24.601562 40 56 40zm0-64c21.679688 0 40 10.992188 40 24s-18.320312 24-40 24-40-10.992188-40-24 18.320312-24 40-24zm0 0"/><path d="m168 256c0-4.417969-3.582031-8-8-8s-8 3.582031-8 8c0 13.679688 17.191406 24 40 24s40-10.320312 40-24c0-4.417969-3.582031-8-8-8s-8 3.582031-8 8c0 1.992188-8.511719 8-24 8s-24-6.007812-24-8zm0 0"/><path d="m192 296c-35.886719 0-64 17.601562-64 40s28.113281 40 64 40 64-17.601562 64-40-28.113281-40-64-40zm0 64c-28.289062 0-48-12.648438-48-24s19.710938-24 48-24 48 12.648438 48 24-19.710938 24-48 24zm0 0"/></svg>