<svg height="140pt" viewBox="0 -56 480 480" width="140pt" xmlns="http://www.w3.org/2000/svg"><path d="m360 184c0 97.203125-78.796875 176-176 176s-176-78.796875-176-176c0-97.199219 78.796875-176 176-176s176 78.800781 176 176zm0 0" fill="#696967"/><path d="m152 168h320v160c0 17.675781-14.328125 32-32 32h-256c-17.671875 0-32-14.324219-32-32zm0 0" fill="#f3967a"/><path d="m168 120h288v48h-288zm0 0" fill="#c7b299"/><path d="m184 120h256s0-32-32-32c-72.441406 0-24-48-24-48-88 0-128 80-200 80zm0 0" fill="#ffd8dc"/><path d="m392 264c0-26.507812-35.816406-48-80-48s-80 21.492188-80 48c0 26.511719 35.816406 48 80 48s80-21.488281 80-48zm0 0" fill="#fddf79"/><path d="m472 160h-8v-40c0-4.417969-3.582031-8-8-8h-8.800781c-2.808594-19.207031-19.816407-33.089844-39.199219-32-25.945312 0-30.609375-6.398438-31.414062-8.359375-2.585938-6.253906 6.253906-19.199219 13.054687-25.96875 2.296875-2.28125 2.988281-5.726563 1.753906-8.722656-1.234375-2.992188-4.15625-4.945313-7.394531-4.949219-25.523438.230469-50.609375 6.671875-73.089844 18.769531-34.105468-32.757812-79.621094-50.964843-126.910156-50.769531-101.621094 0-184 82.382812-184 184 0 101.621094 82.378906 184 184 184h256c22.082031-.023438 39.972656-17.917969 40-40v-160c0-4.417969-3.582031-8-8-8zm-288-32h264v32h-272v-32zm177.785156-50.277344c5.0625 12.304688 20.183594 18.277344 46.214844 18.277344 10.484375-.960938 20.125 5.8125 22.777344 16h-188.699219c12.152344-6.476562 23.882813-14.328125 35.875-22.34375 26.445313-17.6875 53.671875-35.902344 88.800781-40.535156-6.042968 8.230468-7.878906 18.816406-4.96875 28.601562zm-345.785156 106.277344c.101562-92.742188 75.257812-167.898438 168-168 41.410156-.128906 81.378906 15.203125 112.070312 43-9.445312 5.601562-18.398437 11.59375-27.015624 17.355469-27.398438 18.335937-53.285157 35.644531-85.054688 35.644531h-16c-4.417969 0-8 3.582031-8 8v40h-8c-4.417969 0-8 3.582031-8 8v160c.03125 7.234375 2.050781 14.324219 5.832031 20.488281-77.890625-16.289062-133.722656-84.910156-133.832031-164.488281zm448 144c0 13.257812-10.746094 24-24 24h-256c-13.253906 0-24-10.742188-24-24v-152h304zm0 0"/><path d="m312 208c-49.34375 0-88 24.601562-88 56 0 31.402344 38.65625 56 88 56s88-24.597656 88-56c0-31.398438-38.65625-56-88-56zm0 96c-39.023438 0-72-18.320312-72-40s32.976562-40 72-40 72 18.320312 72 40-32.976562 40-72 40zm0 0"/></svg>