<svg height="80pt" viewBox="-1 0 511 511.99872" width="80pt" xmlns="http://www.w3.org/2000/svg"><path d="m10.5 259.214844h489.613281v58.589844h-489.613281zm0 0" fill="#4e7ba6"/><path d="m21.214844 317.804688v51.605468c0 73.226563 59.527344 132.589844 132.957031 132.589844h202.265625c73.429688 0 132.960938-59.363281 132.960938-132.589844v-51.605468zm0 0" fill="#ffd97d"/><path d="m452.933594 259.214844h-395.253906c-9.683594-7.8125-15.882813-19.753906-15.882813-33.148438v-1.167968c0-23.535157 19.125-42.617188 42.714844-42.617188h32.183593c-23.59375 0-42.714843-19.078125-42.714843-42.617188 0-23.535156 19.121093-42.617187 42.714843-42.617187h56.6875c-2.480468-23.144531 5.15625-47.167969 22.9375-64.910156 11.808594-11.785157 26.933594-19.269531 42.195313-22.136719-4.722656 25.019531 2.074219 52.027344 21.476563 71.386719 6.652343 6.636719 14.183593 11.855469 22.21875 15.664062h111.707031c23.589843 0 42.714843 19.078125 42.714843 42.617188 0 23.535156-19.125 42.617187-42.714843 42.617187h32.179687c23.589844 0 42.714844 19.078125 42.714844 42.617188v1.167968c0 13.390626-6.195312 25.335938-15.878906 33.144532zm0 0" fill="#f9c0ca"/><path d="m345.496094 192c-.652344 0-1.3125-.070312-1.960938-.203125-.640625-.128906-1.261718-.316406-1.871094-.566406-.597656-.25-1.179687-.5625-1.71875-.921875-.550781-.359375-1.058593-.78125-1.53125-1.238282-.457031-.460937-.867187-.972656-1.238281-1.523437-.359375-.539063-.671875-1.117187-.921875-1.726563-.25-.601562-.4375-1.230468-.570312-1.871093-.128906-.640625-.1875-1.300781-.1875-1.949219 0-.652344.058594-1.3125.1875-1.960938.132812-.628906.320312-1.261718.570312-1.871093.25-.597657.5625-1.179688.921875-1.71875.371094-.550781.78125-1.058594 1.238281-1.519531.472657-.472657.980469-.882813 1.53125-1.25.539063-.359376 1.121094-.671876 1.71875-.921876.601563-.25 1.230469-.4375 1.871094-.570312 1.289063-.257812 2.621094-.257812 3.910156 0 .640626.132812 1.269532.320312 1.871094.570312.597656.25 1.179688.5625 1.730469.921876.539063.367187 1.058594.777343 1.519531 1.25.457032.460937.878906.96875 1.238282 1.519531.359374.539062.671874 1.121093.921874 1.71875.25.609375.4375 1.242187.570313 1.871093.128906.648438.199219 1.308594.199219 1.960938 0 .648438-.070313 1.308594-.199219 1.949219-.132813.640625-.320313 1.269531-.570313 1.871093-.25.609376-.5625 1.1875-.921874 1.726563-.359376.550781-.78125 1.0625-1.238282 1.523437-.460937.457032-.980468.878907-1.519531 1.238282-.550781.359375-1.132813.671875-1.730469.921875-.601562.25-1.230468.4375-1.871094.566406-.640624.128906-1.300781.203125-1.949218.203125zm0 0"/><path d="m500.113281 249.214844h-26.65625c3.488281-7.101563 5.355469-14.988282 5.355469-23.144532v-1.167968c0-26.09375-19.128906-47.8125-44.125-51.921875 7.460938-9.078125 11.941406-20.683594 11.941406-33.3125 0-29.015625-23.648437-52.617188-52.710937-52.617188h-109.378907c-6.4375-3.300781-12.308593-7.578125-17.484374-12.742187-16.070313-16.035156-23.066407-39.382813-18.710938-62.453125.613281-3.246094-.417969-6.585938-2.753906-8.921875-2.332032-2.339844-5.671875-3.371094-8.917969-2.761719-17.851563 3.355469-34.691406 12.191406-47.414063 24.886719-16.679687 16.644531-25.976562 38.773437-26.328124 61.992187h-46.234376c-29.066406 0-52.714843 23.605469-52.714843 52.617188 0 12.628906 4.480469 24.234375 11.941406 33.316406-24.996094 4.105469-44.125 25.824219-44.125 51.917969v1.167968c0 8.160157 1.867187 16.042969 5.355469 23.148438h-26.652344c-5.523438 0-10 4.476562-10 10v58.589844c0 5.519531 4.476562 10 10 10h.714844v41.601562c0 78.621094 64.128906 142.589844 142.960937 142.589844h202.261719c78.828125 0 142.960938-63.964844 142.960938-142.589844v-41.605468h.714843c5.523438 0 10-4.476563 10-10v-58.589844c0-5.519532-4.480469-10-10-10zm-448.316406-23.144532v-1.167968c0-17.988282 14.675781-32.617188 32.714844-32.617188h218.199219c5.523437 0 10-4.476562 10-10 0-5.523437-4.476563-10-10-10h-185.902344c-.039063 0-.078125 0-.113282 0-18.039062 0-32.714843-14.632812-32.714843-32.617187s14.675781-32.617188 32.714843-32.617188h56.6875c2.835938 0 5.542969-1.207031 7.4375-3.316406 1.898438-2.113281 2.808594-4.929687 2.503907-7.75-2.261719-21.105469 5.050781-41.792969 20.058593-56.769531 6.683594-6.667969 14.832032-11.96875 23.707032-15.515625-.445313 24.273437 8.71875 47.6875 25.839844 64.765625 7.316406 7.300781 15.726562 13.230468 25 17.621094 1.335937.636718 2.800781.960937 4.28125.960937h111.707031c18.039062 0 32.710937 14.632813 32.710937 32.617187 0 17.988282-14.671875 32.617188-32.710937 32.617188-5.523438 0-10 4.476562-10 10s4.476562 10 10 10h32.179687c18.039063 0 32.714844 14.632812 32.714844 32.617188v1.167968c0 8.773438-3.488281 17.042969-9.675781 23.148438h-387.664063c-6.183594-6.105469-9.675781-14.375-9.675781-23.144532zm-31.296875 43.144532h469.613281v38.589844h-469.613281zm458.898438 100.195312c0 67.59375-55.160157 122.585938-122.960938 122.585938h-202.261719c-67.800781.003906-122.960937-54.992188-122.960937-122.585938v-41.605468h448.183594zm0 0"/><path d="m307.199219 401.308594c.863281 0 1.746093-.113282 2.625-.351563l11.140625-3.023437c1.945312 3.015625 4.277344 5.765625 6.921875 8.175781l-6.785157 6.761719c-3.910156 3.902344-3.917968 10.234375-.019531 14.144531 1.957031 1.960937 4.519531 2.9375 7.082031 2.9375 2.554688 0 5.109376-.972656 7.0625-2.917969l11.238282-11.207031c2.945312.667969 6.007812 1.023437 9.152344 1.023437h.773437v17.082032c0 5.523437 4.476563 10 10 10s10-4.476563 10-10v-17.082032h.769531c3.144532 0 6.210938-.355468 9.152344-1.023437l11.242188 11.207031c1.949218 1.945313 4.503906 2.917969 7.058593 2.917969 2.566407 0 5.128907-.980469 7.082031-2.9375 3.898438-3.910156 3.890626-10.242187-.019531-14.144531l-6.785156-6.761719c2.648437-2.410156 4.976563-5.160156 6.921875-8.175781l11.144531 3.023437c.875.238281 1.757813.351563 2.625.351563 4.402344 0 8.4375-2.929688 9.644531-7.382813 1.449219-5.328125-1.699218-10.824219-7.03125-12.269531l-9.980468-2.710938c.082031-1.050781.121094-2.113281.121094-3.183593 0-5.523438-4.476563-10-10-10-5.523438 0-10 4.476562-10 10 0 11.628906-9.5 21.089843-21.175782 21.089843h-21.542968c-11.675782 0-21.175782-9.460937-21.175782-21.089843 0-5.523438-4.476562-10-10-10-5.523437 0-10 4.476562-10 10 0 1.070312.042969 2.132812.121094 3.183593l-9.980469 2.710938c-5.328125 1.445312-8.476562 6.941406-7.03125 12.269531 1.210938 4.453125 5.242188 7.382813 9.648438 7.382813zm0 0"/><path d="m85.03125 401.308594c.863281 0 1.746094-.113282 2.625-.351563l11.140625-3.023437c1.945313 3.015625 4.277344 5.765625 6.921875 8.175781l-6.785156 6.761719c-3.910156 3.902344-3.917969 10.234375-.019532 14.144531 1.957032 1.957031 4.519532 2.9375 7.082032 2.9375 2.554687 0 5.109375-.972656 7.0625-2.917969l11.238281-11.207031c2.945313.667969 6.007813 1.023437 9.152344 1.023437h.769531v17.082032c0 5.523437 4.480469 10 10 10 5.523438 0 10-4.476563 10-10v-17.082032h.773438c3.144531 0 6.207031-.355468 9.152343-1.023437l11.238281 11.207031c1.953126 1.945313 4.507813 2.917969 7.0625 2.917969 2.5625 0 5.128907-.980469 7.082032-2.9375 3.898437-3.910156 3.890625-10.242187-.019532-14.144531l-6.785156-6.761719c2.648438-2.410156 4.976563-5.160156 6.921875-8.175781l11.144531 3.023437c.875.238281 1.757813.351563 2.625.351563 4.402344 0 8.433594-2.929688 9.644532-7.382813 1.445312-5.328125-1.703125-10.824219-7.03125-12.269531l-9.980469-2.710938c.078125-1.050781.121094-2.113281.121094-3.183593 0-5.523438-4.476563-10-10-10-5.523438 0-10 4.476562-10 10 0 11.628906-9.5 21.089843-21.175781 21.089843h-21.542969c-11.675781 0-21.175781-9.460937-21.175781-21.089843 0-5.523438-4.476563-10-10-10-5.523438 0-10 4.476562-10 10 0 1.070312.042968 2.132812.121093 3.183593l-9.980469 2.710938c-5.328124 1.445312-8.476562 6.941406-7.03125 12.269531 1.210938 4.453125 5.242188 7.382813 9.648438 7.382813zm0 0"/></svg>