<svg height="130pt" viewBox="-79 0 455 455.99409" width="130pt" xmlns="http://www.w3.org/2000/svg"><path d="m257.296875 171.515625-.375-.152344c-5.113281-2.046875-8.453125-7.007812-8.425781-12.511719v-14.859374h-80v14.859374c.03125 5.5-3.304688 10.464844-8.414063 12.511719l-.378906.152344c-18.828125 7.515625-31.1875 25.738281-31.207031 46.015625v198.460938c0 17.675781 14.328125 32 32 32h96c17.675781 0 32-14.324219 32-32v-198.460938c-.015625-20.273438-12.371094-38.496094-31.199219-46.015625zm0 0" fill="#a45e14"/><path d="m128.496094 223.992188h160v176h-160zm0 0" fill="#fbd699"/><g fill="#f9f9f9"><path d="m208.746094 303.992188-17.6875-8.847657c-8.773438-4.378906-14.316406-13.34375-14.3125-23.152343 0-8.835938 7.164062-16 16-16 8.835937 0 16 7.164062 16 16zm0 0"/><path d="m208.746094 303.992188-13.847656 14.089843c-6.882813 6.988281-17.121094 9.488281-26.449219 6.457031-8.402344-2.730468-13.003907-11.757812-10.273438-20.160156s11.757813-13.003906 20.160157-10.273437zm0 0"/><path d="m208.746094 303.992188 9.109375 17.554687c4.515625 8.703125 3.730469 19.207031-2.03125 27.144531-5.191407 7.152344-15.199219 8.738282-22.351563 3.542969-7.148437-5.195313-8.734375-15.203125-3.535156-22.351563zm0 0"/><path d="m208.746094 303.992188 19.503906-3.238282c9.671875-1.609375 19.425781 2.386719 25.191406 10.320313 5.195313 7.152343 3.609375 17.160156-3.542968 22.351562-7.152344 5.191407-17.152344 3.605469-22.34375-3.542969zm0 0"/><path d="m208.746094 303.992188 2.941406-19.558594c1.457031-9.695313 8.273438-17.734375 17.601562-20.757813 8.402344-2.730469 17.429688 1.867188 20.160157 10.269531 2.730469 8.402344-1.867188 17.429688-10.273438 20.160157zm0 0"/></g><path d="m232.496094 359.992188h24v16h-24zm0 0" fill="#eecb91"/><path d="m264.496094 359.992188h24v16h-24zm0 0" fill="#eecb91"/><path d="m160.496094 87.992188h96v56h-96zm0 0" fill="#eaeae8"/><path d="m216.496094 87.992188h16v56h-16zm0 0" fill="#dbdbdb"/><path d="m184.496094 87.992188h16v56h-16zm0 0" fill="#dbdbdb"/><path d="m248.496094 87.992188h-80l6.289062-25.15625c1.128906-4.511719 1.316406-9.207032.550782-13.792969l-.261719-1.601563c-1.636719-9.824218 1.132812-19.867187 7.574219-27.464844 6.4375-7.597656 15.890624-11.980468 25.847656-11.984374 9.960937.003906 19.417968 4.386718 25.855468 11.984374 6.4375 7.601563 9.207032 17.648438 7.570313 27.472657l-.265625 1.601562c-.765625 4.585938-.578125 9.28125.554688 13.792969zm0 0" fill="#b6534f"/><path d="m72.496094 415.992188c-35.34375 0-64-28.652344-64-64 .011718-20.921876 5.828125-41.4375 16.800781-59.253907l47.199219-76.746093 47.199218 76.746093c10.972657 17.816407 16.789063 38.332031 16.800782 59.253907 0 35.347656-28.652344 64-64 64zm0 0" fill="#fbb540"/><path d="m128.496094 382.953125c5.257812-9.46875 8.011718-20.125 8-30.960937-.019532-14.246094-2.734375-28.359376-8-41.597657zm0 0" fill="#da922a"/><path d="m43.832031 367.195312c-3.179687 0-6.0625-1.882812-7.335937-4.800781-2.648438-6.054687-4.011719-12.59375-4-19.199219.050781-22.796874 16.078125-42.429687 38.402344-47.042968 4.328124-.882813 8.554687 1.910156 9.4375 6.242187.882812 4.328125-1.910157 8.554688-6.238282 9.441407-9.457031 1.941406-17.535156 8.046874-21.988281 16.613281-4.449219 8.570312-4.796875 18.691406-.949219 27.542969 1.769532 4.050781-.078125 8.769531-4.128906 10.539062-1.007812.433594-2.097656.660156-3.199219.664062zm0 0" fill="#fbc472"/><path d="m72.496094 390.394531c-.535156 0-1.074219-.050781-1.597656-.160156-3.296876-.671875-6.515626-1.6875-9.601563-3.03125-4.023437-1.78125-5.855469-6.480469-4.09375-10.515625s6.449219-5.890625 10.492187-4.148438c2.058594.894532 4.203126 1.570313 6.402344 2.015626 4.027344.816406 6.78125 4.554687 6.367188 8.644531-.414063 4.089843-3.859375 7.199219-7.96875 7.195312zm0 0" fill="#fbc472"/><path d="m88.496094 183.992188h16v16h-16zm0 0" fill="#fbb540"/><path d="m88.496094 151.992188h16v16h-16zm0 0" fill="#fbb540"/><path d="m88.496094 95.992188h16v40h-16zm0 0" fill="#fbb540"/><path d="m168.496094 143.992188h80v16h-80zm0 0" fill="#985713"/><path d="m172.496094 71.992188-4 16h80l-4-16zm0 0" fill="#a24a46"/><path d="m249.785156 297.136719c8.691406-7.433594 10.929688-19.96875 5.347656-29.949219-5.582031-9.984375-17.429687-14.640625-28.316406-11.128906-4.386718 1.429687-8.441406 3.734375-11.910156 6.777344-4.386719-10.570313-15.617188-16.574219-26.839844-14.347657-11.222656 2.226563-19.3125 12.066407-19.328125 23.503907 0 4.617187.941407 9.1875 2.765625 13.425781-11.398437.910156-20.574218 9.734375-21.925781 21.09375-1.347656 11.355469 5.503906 22.089843 16.375 25.640625 3.40625 1.109375 6.964844 1.671875 10.542969 1.671875 1.050781 0 2.082031-.207031 3.121094-.300781-2.726563 11.128906 2.792968 22.632812 13.179687 27.46875 10.390625 4.835937 22.746094 1.652343 29.507813-7.597657 2.738281-3.769531 4.671874-8.066406 5.679687-12.617187 8.207031 5.234375 18.785156 4.882812 26.625-.878906 10.722656-7.792969 13.097656-22.804688 5.304687-33.527344-2.714843-3.734375-6.160156-6.878906-10.128906-9.234375zm-60.625 15.335937c-4.738281 4.851563-11.828125 6.582032-18.269531 4.457032-4.023437-1.496094-6.144531-5.898438-4.816406-9.976563s5.636719-6.382813 9.765625-5.222656l18.121094 5.886719zm-4.421875-40.480468c0-4.417969 3.582031-8 8-8s8 3.582031 8 8v19.058593l-6.105469-3.058593c-6.078124-3.007813-9.917968-9.214844-9.894531-16zm24.613281 72c-2.597656 3.578124-7.601562 4.371093-11.179687 1.773437-3.574219-2.597656-4.367187-7.601563-1.769531-11.179687l11.199218-15.425782 3.144532 6.074219c3.144531 6.007813 2.605468 13.28125-1.394532 18.757813zm9.226563-51.605469 1.023437-6.753907c.980469-6.710937 5.695313-12.277343 12.152344-14.351562.796875-.261719 1.632813-.394531 2.472656-.390625 3.933594-.003906 7.289063 2.855469 7.90625 6.742187.617188 3.890626-1.683593 7.648438-5.429687 8.867188zm26.621094 34.566406c-1.71875 1.253906-3.867188 1.773437-5.96875 1.441406-2.101563-.335937-3.984375-1.492187-5.230469-3.214843l-11.199219-15.417969 6.746094-1.121094c6.6875-1.132813 13.4375 1.632813 17.40625 7.136719 1.253906 1.71875 1.773437 3.867187 1.4375 5.96875-.332031 2.101562-1.488281 3.984375-3.214844 5.230468zm0 0"/><path d="m232.496094 359.992188h24v16h-24zm0 0"/><path d="m72.496094 423.992188c17.738281-.003907 34.84375-6.589844 48-18.484376v10.484376c.027344 22.082031 17.921875 39.976562 40 40h96c22.082031-.023438 39.972656-17.917969 40-40v-198.476563c.128906-23.34375-13.984375-44.40625-35.625-53.160156-.191406-.089844-.796875-.335938-.964844-.410157-2.078125-.820312-3.4375-2.835937-3.410156-5.070312v-6.882812c4.417968 0 8-3.578126 8-8v-56c0-4.417969-3.582032-8-8-8h-1.75l-4.800782-19.109376c-.867187-3.441406-1.011718-7.027343-.425781-10.527343l.265625-1.601563c2.726563-16.394531-4.496094-32.851562-18.410156-41.9375-13.914062-9.089844-31.886719-9.089844-45.800781 0-13.917969 9.085938-21.140625 25.542969-18.414063 41.9375l.265625 1.601563c.585938 3.503906.441407 7.089843-.425781 10.535156l-4.742188 19.101563h-1.761718c-4.417969 0-8 3.582031-8 8v56c0 4.421874 3.582031 8 8 8v6.882812c-.011719 2.363281-1.527344 4.457031-3.765625 5.207031-21.917969 8.664063-36.292969 29.863281-36.234375 53.433594v61.222656l-41.183594-66.9375c-1.554688-2.210937-4.09375-3.53125-6.800781-3.53125s-5.242188 1.320313-6.796875 3.53125l-47.203125 76.746094c-11.765625 19.070313-18.003907 41.039063-18.015625 63.445313.046875 39.75 32.253906 71.957031 72 72zm176-328v40h-16v-40zm-65.949219-31.199219c1.402344-5.574219 1.636719-11.382813.6875-17.054688l-.265625-1.601562c-1.6875-10.128907 2.777344-20.300781 11.375-25.917969s19.707031-5.617188 28.308594 0c8.597656 5.617188 13.0625 15.789062 11.371094 25.917969l-.261719 1.601562c-.953125 5.667969-.71875 11.472657.6875 17.046875l3.808593 15.207032h-59.519531zm33.949219 31.199219v40h-16v-40zm-48 0h16v40h-16zm-5.390625 82.769531c8.113281-3.265625 13.417969-11.140625 13.390625-19.886719v-6.882812h64v6.882812c-.089844 8.527344 4.960937 16.273438 12.800781 19.632812.191406.101563.800781.351563 1.007813.4375 15.296874 6.054688 25.539062 20.609376 26.082031 37.046876h-143.777344c.589844-16.589844 11.011719-31.234376 26.496094-37.230469zm-26.609375 206.03125c5.25-10.136719 7.992187-21.382813 8-32.800781-.015625-14.738282-2.726563-29.351563-8-43.117188v-76.882812h144v128h-16v16h16v16h-144zm0 23.199219h144v8c0 13.257812-10.746094 24-24 24h-96c-13.253906 0-24-10.742188-24-24zm-104.414063-111.0625 40.414063-65.671876 40.417968 65.679688c10.191407 16.554688 15.585938 35.617188 15.582032 55.054688 0 30.929687-25.070313 56-56 56-30.925782 0-56-25.070313-56-56 0-19.441407 5.394531-38.503907 15.585937-55.0625zm0 0"/><path d="m43.832031 367.195312c2.699219-.003906 5.210938-1.367187 6.683594-3.625 1.476563-2.257812 1.714844-5.105468.636719-7.578124-3.847656-8.855469-3.5-18.976563.953125-27.542969 4.453125-8.570313 12.53125-14.675781 21.992187-16.613281 4.328125-.886719 7.121094-5.113282 6.238282-9.441407-.882813-4.332031-5.109376-7.125-9.4375-6.242187-22.324219 4.613281-38.351563 24.25-38.402344 47.042968-.011719 6.605469 1.347656 13.144532 4 19.199219 1.273437 2.917969 4.15625 4.800781 7.335937 4.800781zm0 0"/><path d="m74.097656 374.554688c-2.199218-.445313-4.347656-1.121094-6.402344-2.023438-4.042968-1.742188-8.730468.113281-10.492187 4.148438-1.761719 4.035156.070313 8.730468 4.09375 10.515624 3.082031 1.351563 6.300781 2.367188 9.601563 3.039063.527343.105469 1.0625.15625 1.597656.160156 4.109375.003907 7.554687-3.105469 7.96875-7.195312.414062-4.089844-2.339844-7.828125-6.367188-8.644531zm0 0"/><path d="m88.496094 183.992188h16v16h-16zm0 0"/><path d="m88.496094 151.992188h16v16h-16zm0 0"/><path d="m88.496094 95.992188h16v40h-16zm0 0"/></svg>