<?xml version="1.0" encoding="iso-8859-1"?>
<!-- Generator: Adobe Illustrator 21.0.0, SVG Export Plug-In . SVG Version: 6.00 Build 0)  -->
<svg version="1.1" id="Capa_1" xmlns="http://www.w3.org/2000/svg" xmlns:xlink="http://www.w3.org/1999/xlink" x="0px" y="0px"
	 viewBox="0 0 609.156 609.156" style="enable-background:new 0 0 609.156 609.156;" xml:space="preserve">
<g>
	<g>
		<g id="filled_outline_25_">
			<polygon style="fill:#ED5A2D;" points="416.257,477.172 192.899,477.172 131.984,71.068 477.172,71.068 			"/>
			<rect x="131.984" y="10.153" style="fill:#E04E2D;" width="345.188" height="60.916"/>
			<path style="fill:#E04E2D;" d="M415.099,71.068C369.981,258.17,266.282,371.088,186.32,433.282l6.579,43.89h223.357
				l60.916-406.104H415.099z"/>
			<rect x="192.899" y="477.172" style="fill:#FAB349;" width="223.357" height="121.831"/>
			<path style="fill:#F0A435;" d="M365.494,558.393H243.662v-20.305c0-11.219,9.087-20.305,20.305-20.305h81.221
				c11.219,0,20.305,9.087,20.305,20.305V558.393z"/>
			<rect x="192.899" y="548.24" style="fill:#F09818;" width="223.357" height="20.305"/>
			<circle style="fill:#FAB349;" cx="304.578" cy="263.968" r="60.916"/>
			<rect x="294.425" y="152.289" style="fill:#FAB349;" width="20.305" height="20.305"/>
			<rect x="294.425" y="355.341" style="fill:#FAB349;" width="20.305" height="20.305"/>
			<rect x="294.425" y="152.289" style="fill:#FAB349;" width="20.305" height="20.305"/>
			<rect x="294.425" y="355.341" style="fill:#FAB349;" width="20.305" height="20.305"/>
			
				<rect x="222.635" y="182.036" transform="matrix(0.707 -0.7072 0.7072 0.707 -67.712 220.9392)" style="fill:#FAB349;" width="20.305" height="20.305"/>
			
				<rect x="366.207" y="325.621" transform="matrix(0.707 -0.7072 0.7072 0.707 -127.1905 364.5437)" style="fill:#FAB349;" width="20.305" height="20.305"/>
			
				<rect x="222.635" y="182.036" transform="matrix(0.707 -0.7072 0.7072 0.707 -67.712 220.9392)" style="fill:#FAB349;" width="20.305" height="20.305"/>
			
				<rect x="366.207" y="325.621" transform="matrix(0.707 -0.7072 0.7072 0.707 -127.1905 364.5437)" style="fill:#FAB349;" width="20.305" height="20.305"/>
			
				<rect x="222.62" y="325.607" transform="matrix(0.7071 -0.7071 0.7071 0.7071 -169.2405 262.9368)" style="fill:#FAB349;" width="20.305" height="20.305"/>
			
				<rect x="366.214" y="182.029" transform="matrix(0.7071 -0.7071 0.7071 0.7071 -25.6575 322.4203)" style="fill:#FAB349;" width="20.305" height="20.305"/>
			
				<rect x="222.62" y="325.607" transform="matrix(0.7071 -0.7071 0.7071 0.7071 -169.2405 262.9368)" style="fill:#FAB349;" width="20.305" height="20.305"/>
			
				<rect x="366.214" y="182.029" transform="matrix(0.7071 -0.7071 0.7071 0.7071 -25.6575 322.4203)" style="fill:#FAB349;" width="20.305" height="20.305"/>
			<rect x="192.899" y="253.815" style="fill:#FAB349;" width="20.305" height="20.305"/>
			<rect x="395.951" y="253.815" style="fill:#FAB349;" width="20.305" height="20.305"/>
			<path d="M477.172,0H131.984c-5.604,0-10.153,4.548-10.153,10.153v60.916c0,0.284,0.142,0.518,0.162,0.792
				c0.02,0.274-0.081,0.477-0.051,0.711l60.804,405.353v121.08c0,5.604,4.548,10.153,10.153,10.153h223.357
				c5.604,0,10.153-4.548,10.153-10.153v-121.08l60.804-405.353c0-0.234-0.071-0.467,0-0.711c0.071-0.244,0.112-0.508,0.112-0.792
				V10.153C487.325,4.548,482.776,0,477.172,0z M142.136,20.305H467.02v40.61H142.136V20.305z M203.052,487.325h203.052v60.916
				h-30.458v-10.153c0-16.823-13.635-30.458-30.458-30.458h-81.221c-16.823,0-30.458,13.635-30.458,30.458v10.153h-30.458V487.325z
				 M355.341,548.24H253.815v-10.153c0-5.604,4.548-10.153,10.153-10.153h81.221c5.604,0,10.153,4.548,10.153,10.153V548.24z
				 M203.052,588.851v-20.305h203.052v20.305H203.052z M407.515,467.02H201.641l-57.87-385.799h321.614L407.515,467.02z"/>
			<path d="M304.578,335.036c39.25,0,71.068-31.818,71.068-71.068s-31.818-71.068-71.068-71.068s-71.068,31.818-71.068,71.068
				C233.55,303.197,265.348,334.995,304.578,335.036z M304.578,213.205c28.031,0,50.763,22.732,50.763,50.763
				c0,28.031-22.732,50.763-50.763,50.763s-50.763-22.732-50.763-50.763C253.845,235.946,276.557,213.235,304.578,213.205z"/>
			<rect x="294.425" y="152.289" width="20.305" height="20.305"/>
			<rect x="294.425" y="355.341" width="20.305" height="20.305"/>
			
				<rect x="222.635" y="182.036" transform="matrix(0.707 -0.7072 0.7072 0.707 -67.712 220.9392)" width="20.305" height="20.305"/>
			
				<rect x="366.207" y="325.621" transform="matrix(0.707 -0.7072 0.7072 0.707 -127.1905 364.5437)" width="20.305" height="20.305"/>
			
				<rect x="222.62" y="325.607" transform="matrix(0.7071 -0.7071 0.7071 0.7071 -169.2405 262.9368)" width="20.305" height="20.305"/>
			
				<rect x="366.214" y="182.029" transform="matrix(0.7071 -0.7071 0.7071 0.7071 -25.6575 322.4203)" width="20.305" height="20.305"/>
			<rect x="192.899" y="253.815" width="20.305" height="20.305"/>
			<rect x="395.951" y="253.815" width="20.305" height="20.305"/>
		</g>
	</g>
</g>
<g>
</g>
<g>
</g>
<g>
</g>
<g>
</g>
<g>
</g>
<g>
</g>
<g>
</g>
<g>
</g>
<g>
</g>
<g>
</g>
<g>
</g>
<g>
</g>
<g>
</g>
<g>
</g>
<g>
</g>
</svg>
