<svg height="100pt" viewBox="-135 0 479 480" width="100pt" xmlns="http://www.w3.org/2000/svg"><path d="m72.5 8h64c17.671875 0 32 14.328125 32 32v64h-128v-64c0-17.671875 14.328125-32 32-32zm0 0" fill="#68e3d7"/><path d="m40.5 104h128c17.671875 0 32 14.328125 32 32v304c0 17.671875-14.328125 32-32 32h-128c-17.671875 0-32-14.328125-32-32v-304c0-17.671875 14.328125-32 32-32zm0 0" fill="#c7edf3"/><path d="m40.5 136h128v80h-128zm0 0" fill="#fff"/><path d="m32.5 40v56.800781c-18.613281 3.828125-31.976562 20.199219-32 39.199219v304c.027344 22.082031 17.917969 39.972656 40 40h128c22.082031-.027344 39.972656-17.917969 40-40v-304c-.023438-19-13.386719-35.371094-32-39.199219v-56.800781c-.027344-22.082031-17.917969-39.9726562-40-40h-64c-22.082031.0273438-39.972656 17.917969-40 40zm160 96v304c0 13.253906-10.746094 24-24 24h-128c-13.253906 0-24-10.746094-24-24v-304c0-13.253906 10.746094-24 24-24h128c13.253906 0 24 10.746094 24 24zm-32-96v56h-112v-56c0-13.253906 10.746094-24 24-24h64c13.253906 0 24 10.746094 24 24zm0 0"/><path d="m40.5 128c-4.417969 0-8 3.582031-8 8v80c0 4.417969 3.582031 8 8 8h128c4.417969 0 8-3.582031 8-8v-80c0-4.417969-3.582031-8-8-8zm120 80h-112v-64h112zm0 0"/></svg>